<svg id="ex7PzZ5U1Wp1" xmlns="http://www.w3.org/2000/svg" xmlns:xlink="http://www.w3.org/1999/xlink" viewBox="0 0 1040 480" shape-rendering="geometricPrecision" text-rendering="geometricPrecision"><path d="M1040.000001,304.958246q37.424777-.000001,19.140041,47.540309q9.142368,96.909095-5.48542,159.077193c-14.627788,62.168098,43.883364,45.711838-13.654622,85.938254s-11.944007,12.799315-291.700451,29.255576-279.756444-12.799314-579.626097-3.656947-263.300183,34.740997-257.814762-96.909095s64.917272-400.435691,89.141314-228.559184c62.62199-25.598629,106.505354-122.507725,159.531085-124.336198s43.883363,54.854206,107.879935,56.682679s29.255576-38.397945,100.566042-56.682679s65.825043,100.566042,142.620929,93.252148s62.168101-54.854205,102.394518-93.252148s56.682678-58.511151,87.766727-58.511151s100.566042,29.255576,107.879936,93.252148s25.598627,69.481992,53.025729,58.511151s38.397944-62.168098,82.281308-65.825045s58.629011,104.222989,96.053788,104.222989Z" transform="matrix(1.013026 0 0 1-5.474084-1.283284)" fill="#8197cc" stroke-width="2.08"/><ellipse rx="4.338151" ry="2.002223" transform="translate(765.354706 148.149817)" fill="#d2dbed" stroke-width="0"/><ellipse rx="4.171299" ry="1.334816" transform="translate(136.052802 187.159823)" fill="#d2dbed" stroke-width="0"/><ellipse rx="3.503891" ry="1.66852" transform="translate(152.404296 181.82056)" fill="#d2dbed" stroke-width="0"/><ellipse rx="3.503891" ry="1.66852" transform="translate(152.404296 181.82056)" fill="#d2dbed" stroke-width="0"/><ellipse rx="3.670744" ry="1.167963" transform="translate(168.588937 177.315557)" fill="#d2dbed" stroke-width="0"/><ellipse rx="4.338151" ry="2.002223" transform="translate(142.560029 180.149817)" fill="#d2dbed" stroke-width="0"/><ellipse rx="4.338151" ry="2.002223" transform="translate(365.560029 177.149817)" fill="#d2dbed" stroke-width="0"/><ellipse rx="4.338151" ry="2.002223" transform="translate(386.560029 174.149817)" fill="#d2dbed" stroke-width="0"/><ellipse rx="4.338151" ry="2.002223" transform="translate(407.354706 184.149817)" fill="#d2dbed" stroke-width="0"/><ellipse rx="4.338151" ry="2.002223" transform="translate(712.354706 121.149817)" fill="#d2dbed" stroke-width="0"/><ellipse rx="4.338151" ry="2.002223" transform="translate(686.354706 119.149817)" fill="#d2dbed" stroke-width="0"/><ellipse rx="4.338151" ry="2.002223" transform="translate(726.354706 124.149817)" fill="#d2dbed" stroke-width="0"/><ellipse rx="4.338151" ry="2.002223" transform="translate(737.354706 129.149817)" fill="#d2dbed" stroke-width="0"/><ellipse rx="4.338151" ry="2.002223" transform="translate(707.354706 139.149817)" fill="#d2dbed" stroke-width="0"/><ellipse rx="4.338151" ry="2.002223" transform="translate(685.354706 131.149817)" fill="#d2dbed" stroke-width="0"/><ellipse rx="4.338151" ry="2.002223" transform="translate(744.354706 137.149817)" fill="#d2dbed" stroke-width="0"/><ellipse rx="4.338151" ry="2.002223" transform="translate(660.354706 140.149817)" fill="#d2dbed" stroke-width="0"/><ellipse rx="4.338151" ry="2.002223" transform="translate(722.354706 133.149817)" fill="#d2dbed" stroke-width="0"/><ellipse rx="4.338151" ry="2.002223" transform="translate(755.354706 138.149817)" fill="#d2dbed" stroke-width="0"/><ellipse rx="4.338151" ry="2.002223" transform="translate(615.354706 178.149817)" fill="#d2dbed" stroke-width="0"/><ellipse rx="4.338151" ry="2.002223" transform="translate(399.560029 179.149817)" fill="#d2dbed" stroke-width="0"/><ellipse rx="4.338151" ry="2.002223" transform="translate(344.560029 187.720161)" fill="#d2dbed" stroke-width="0"/><ellipse rx="4.338151" ry="2.002223" transform="translate(188.560029 185.720161)" fill="#d2dbed" stroke-width="0"/><ellipse rx="4.338151" ry="2.002223" transform="translate(941.354706 205.149817)" fill="#d2dbed" stroke-width="0"/><ellipse rx="4.338151" ry="2.002223" transform="translate(959.354706 209.149817)" fill="#d2dbed" stroke-width="0"/><ellipse rx="4.338151" ry="2.002223" transform="translate(920.354706 216.149817)" fill="#d2dbed" stroke-width="0"/><ellipse rx="4.338151" ry="2.002223" transform="translate(962.354706 216.149817)" fill="#d2dbed" stroke-width="0"/><ellipse rx="2.38409" ry="1.043039" transform="translate(116.10463 201.291487)" fill="#d2dbed" stroke-width="0"/><ellipse rx="2.38409" ry="1.043039" transform="translate(196.10463 198.291487)" fill="#d2dbed" stroke-width="0"/><ellipse rx="2.38409" ry="1.043039" transform="translate(176.10463 188.291487)" fill="#d2dbed" stroke-width="0"/><ellipse rx="2.38409" ry="1.043039" transform="translate(156.10463 198.291487)" fill="#d2dbed" stroke-width="0"/><ellipse rx="2.38409" ry="1.043039" transform="translate(159.10463 186.291487)" fill="#d2dbed" stroke-width="0"/><ellipse rx="2.38409" ry="1.043039" transform="translate(109.10463 206.291487)" fill="#d2dbed" stroke-width="0"/><ellipse rx="2.38409" ry="1.043039" transform="translate(129.10463 196.291487)" fill="#d2dbed" stroke-width="0"/><ellipse rx="2.38409" ry="1.043039" transform="translate(148.10463 194.291487)" fill="#d2dbed" stroke-width="0"/><ellipse rx="2.38409" ry="1.043039" transform="translate(178.10463 204.291487)" fill="#d2dbed" stroke-width="0"/><ellipse rx="2.38409" ry="1.043039" transform="translate(168.10463 194.291487)" fill="#d2dbed" stroke-width="0"/><ellipse rx="2.38409" ry="1.043039" transform="translate(180.10463 194.291487)" fill="#d2dbed" stroke-width="0"/><ellipse rx="2.38409" ry="1.043039" transform="translate(200.10463 204.291487)" fill="#d2dbed" stroke-width="0"/><ellipse rx="2.38409" ry="1.043039" transform="translate(190.10463 204.291487)" fill="#d2dbed" stroke-width="0"/><ellipse rx="2.38409" ry="1.043039" transform="translate(140.10463 204.291487)" fill="#d2dbed" stroke-width="0"/><ellipse rx="2.38409" ry="1.043039" transform="translate(140.10463 195.291487)" fill="#d2dbed" stroke-width="0"/><ellipse rx="2.38409" ry="1.043039" transform="translate(95.10463 215.291487)" fill="#d2dbed" stroke-width="0"/><ellipse rx="2.38409" ry="1.043039" transform="translate(205.10463 213.291487)" fill="#d2dbed" stroke-width="0"/><ellipse rx="2.38409" ry="1.043039" transform="translate(195.10463 213.291487)" fill="#d2dbed" stroke-width="0"/><ellipse rx="2.38409" ry="1.043039" transform="translate(212.10463 217.291487)" fill="#d2dbed" stroke-width="0"/><ellipse rx="2.38409" ry="1.043039" transform="translate(212.10463 227.291487)" fill="#d2dbed" stroke-width="0"/><ellipse rx="2.38409" ry="1.043039" transform="translate(202.10463 225.291487)" fill="#d2dbed" stroke-width="0"/><ellipse rx="2.38409" ry="1.043039" transform="translate(162.10463 215.291487)" fill="#d2dbed" stroke-width="0"/><ellipse rx="2.38409" ry="1.043039" transform="translate(86.10463 222.291487)" fill="#d2dbed" stroke-width="0"/><ellipse rx="2.38409" ry="1.043039" transform="translate(106.10463 212.291487)" fill="#d2dbed" stroke-width="0"/><ellipse rx="2.38409" ry="1.043039" transform="translate(226.10463 223.291487)" fill="#d2dbed" stroke-width="0"/><ellipse rx="2.38409" ry="1.043039" transform="translate(246.10463 233.291487)" fill="#d2dbed" stroke-width="0"/><ellipse rx="2.38409" ry="1.043039" transform="translate(256.10463 231.291487)" fill="#d2dbed" stroke-width="0"/><ellipse rx="2.38409" ry="1.043039" transform="translate(241.10463 228.291487)" fill="#d2dbed" stroke-width="0"/><ellipse rx="2.38409" ry="1.043039" transform="translate(265.10463 232.291487)" fill="#d2dbed" stroke-width="0"/><ellipse rx="2.38409" ry="1.043039" transform="translate(258.10463 235.291487)" fill="#d2dbed" stroke-width="0"/><ellipse rx="2.38409" ry="1.043039" transform="translate(271.10463 236.291487)" fill="#d2dbed" stroke-width="0"/><ellipse rx="2.38409" ry="1.043039" transform="translate(311.10463 216.291487)" fill="#d2dbed" stroke-width="0"/><ellipse rx="2.38409" ry="1.043039" transform="translate(321.10463 206.291487)" fill="#d2dbed" stroke-width="0"/><ellipse rx="2.38409" ry="1.043039" transform="translate(319.10463 213.291487)" fill="#d2dbed" stroke-width="0"/><ellipse rx="2.38409" ry="1.043039" transform="translate(329.10463 193.291487)" fill="#d2dbed" stroke-width="0"/><ellipse rx="2.38409" ry="1.043039" transform="translate(376.10463 173.291487)" fill="#d2dbed" stroke-width="0"/><ellipse rx="2.38409" ry="1.043039" transform="translate(366.10463 183.291487)" fill="#d2dbed" stroke-width="0"/><ellipse rx="2.38409" ry="1.043039" transform="translate(396.10463 193.291487)" fill="#d2dbed" stroke-width="0"/><ellipse rx="2.38409" ry="1.043039" transform="translate(386.10463 183.291487)" fill="#d2dbed" stroke-width="0"/><ellipse rx="2.38409" ry="1.043039" transform="translate(396.10463 185.291487)" fill="#d2dbed" stroke-width="0"/><ellipse rx="2.38409" ry="1.043039" transform="translate(356.10463 188.291487)" fill="#d2dbed" stroke-width="0"/><ellipse rx="2.38409" ry="1.043039" transform="translate(376.10463 188.291487)" fill="#d2dbed" stroke-width="0"/><ellipse rx="2.38409" ry="1.043039" transform="translate(411.10463 190.291487)" fill="#d2dbed" stroke-width="0"/><ellipse rx="2.38409" ry="1.043039" transform="translate(421.10463 200.291487)" fill="#d2dbed" stroke-width="0"/><ellipse rx="2.38409" ry="1.043039" transform="translate(416.10463 195.291487)" fill="#d2dbed" stroke-width="0"/><ellipse rx="2.38409" ry="1.043039" transform="translate(426.10463 205.291487)" fill="#d2dbed" stroke-width="0"/><ellipse rx="2.38409" ry="1.043039" transform="translate(386.10463 193.291487)" fill="#d2dbed" stroke-width="0"/><ellipse rx="2.38409" ry="1.043039" transform="translate(426.10463 213.291487)" fill="#d2dbed" stroke-width="0"/><ellipse rx="2.38409" ry="1.043039" transform="translate(433.10463 215.291487)" fill="#d2dbed" stroke-width="0"/><ellipse rx="2.38409" ry="1.043039" transform="translate(403.10463 195.291487)" fill="#d2dbed" stroke-width="0"/><ellipse rx="2.38409" ry="1.043039" transform="translate(363.10463 195.291487)" fill="#d2dbed" stroke-width="0"/><ellipse rx="2.38409" ry="1.043039" transform="translate(343.10463 205.291487)" fill="#d2dbed" stroke-width="0"/><ellipse rx="2.38409" ry="1.043039" transform="translate(345.10463 195.291487)" fill="#d2dbed" stroke-width="0"/><ellipse rx="2.38409" ry="1.043039" transform="translate(435.10463 223.291487)" fill="#d2dbed" stroke-width="0"/><ellipse rx="2.38409" ry="1.043039" transform="translate(440.10463 226.291487)" fill="#d2dbed" stroke-width="0"/><ellipse rx="2.38409" ry="1.043039" transform="translate(428.10463 221.291487)" fill="#d2dbed" stroke-width="0"/><ellipse rx="2.38409" ry="1.043039" transform="translate(442.10463 231.291487)" fill="#d2dbed" stroke-width="0"/><ellipse rx="2.38409" ry="1.043039" transform="translate(449.10463 239.291487)" fill="#d2dbed" stroke-width="0"/><ellipse rx="2.38409" ry="1.043039" transform="translate(8.10463 296.291487)" fill="#d2dbed" stroke-width="0"/><ellipse rx="2.38409" ry="1.043039" transform="translate(18.10463 286.291487)" fill="#d2dbed" stroke-width="0"/><ellipse rx="2.38409" ry="1.043039" transform="translate(14.10463 291.291487)" fill="#d2dbed" stroke-width="0"/><ellipse rx="2.38409" ry="1.043039" transform="translate(84.10463 229.291487)" fill="#d2dbed" stroke-width="0"/><ellipse rx="2.38409" ry="1.043039" transform="translate(98.10463 220.291487)" fill="#d2dbed" stroke-width="0"/><ellipse rx="2.38409" ry="1.043039" transform="translate(125.10463 202.291487)" fill="#d2dbed" stroke-width="0"/><ellipse rx="2.38409" ry="1.043039" transform="translate(116.10463 194.291487)" fill="#d2dbed" stroke-width="0"/><ellipse rx="2.38409" ry="1.043039" transform="translate(278.10463 233.291487)" fill="#d2dbed" stroke-width="0"/><ellipse rx="2.38409" ry="1.043039" transform="translate(287.10463 229.291487)" fill="#d2dbed" stroke-width="0"/><ellipse rx="2.38409" ry="1.043039" transform="translate(297.10463 226.291487)" fill="#d2dbed" stroke-width="0"/><ellipse rx="2.38409" ry="1.043039" transform="translate(307.10463 220.291487)" fill="#d2dbed" stroke-width="0"/><ellipse rx="2.38409" ry="1.043039" transform="translate(304.10463 225.291487)" fill="#d2dbed" stroke-width="0"/><ellipse rx="2.38409" ry="1.043039" transform="translate(294.10463 231.291487)" fill="#d2dbed" stroke-width="0"/><ellipse rx="2.38409" ry="1.043039" transform="translate(284.10463 236.291487)" fill="#d2dbed" stroke-width="0"/><ellipse rx="2.38409" ry="1.043039" transform="translate(374.10463 196.291487)" fill="#d2dbed" stroke-width="0"/><ellipse rx="2.38409" ry="1.043039" transform="translate(408.10463 203.291487)" fill="#d2dbed" stroke-width="0"/><ellipse rx="2.38409" ry="1.043039" transform="translate(337.10463 200.291487)" fill="#d2dbed" stroke-width="0"/><ellipse rx="2.38409" ry="1.043039" transform="translate(336.10463 190.291487)" fill="#d2dbed" stroke-width="0"/><ellipse rx="2.38409" ry="1.043039" transform="translate(454.10463 245.291487)" fill="#d2dbed" stroke-width="0"/><ellipse rx="2.38409" ry="1.043039" transform="translate(459.10463 251.291487)" fill="#d2dbed" stroke-width="0"/><ellipse rx="2.38409" ry="1.043039" transform="translate(468.10463 259.291487)" fill="#d2dbed" stroke-width="0"/><ellipse rx="2.38409" ry="1.043039" transform="translate(474.10463 261.291487)" fill="#d2dbed" stroke-width="0"/><ellipse rx="2.38409" ry="1.043039" transform="translate(457.10463 258.291487)" fill="#d2dbed" stroke-width="0"/><ellipse rx="2.38409" ry="1.043039" transform="translate(487.10463 268.291487)" fill="#d2dbed" stroke-width="0"/><ellipse rx="2.38409" ry="1.043039" transform="translate(507.10463 268.291487)" fill="#d2dbed" stroke-width="0"/><ellipse rx="2.38409" ry="1.043039" transform="translate(517.10463 268.291487)" fill="#d2dbed" stroke-width="0"/><ellipse rx="2.38409" ry="1.043039" transform="translate(512.10463 271.291487)" fill="#d2dbed" stroke-width="0"/><ellipse rx="2.38409" ry="1.043039" transform="translate(500.10463 269.291487)" fill="#d2dbed" stroke-width="0"/><ellipse rx="2.38409" ry="1.043039" transform="translate(537.10463 264.291487)" fill="#d2dbed" stroke-width="0"/><ellipse rx="2.38409" ry="1.043039" transform="translate(547.10463 259.291487)" fill="#d2dbed" stroke-width="0"/><ellipse rx="2.38409" ry="1.043039" transform="translate(557.10463 255.291487)" fill="#d2dbed" stroke-width="0"/><ellipse rx="2.38409" ry="1.043039" transform="translate(564.10463 250.291487)" fill="#d2dbed" stroke-width="0"/><ellipse rx="2.38409" ry="1.043039" transform="translate(574.10463 240.291487)" fill="#d2dbed" stroke-width="0"/><ellipse rx="2.38409" ry="1.043039" transform="translate(580.10463 235.291487)" fill="#d2dbed" stroke-width="0"/><ellipse rx="2.38409" ry="1.043039" transform="translate(583.10463 228.291487)" fill="#d2dbed" stroke-width="0"/><ellipse rx="2.38409" ry="1.043039" transform="translate(593.10463 208.291487)" fill="#d2dbed" stroke-width="0"/><ellipse rx="2.38409" ry="1.043039" transform="translate(603.10463 198.291487)" fill="#d2dbed" stroke-width="0"/><ellipse rx="2.38409" ry="1.043039" transform="translate(591.10463 218.291487)" fill="#d2dbed" stroke-width="0"/><ellipse rx="2.38409" ry="1.043039" transform="translate(611.10463 184.291487)" fill="#d2dbed" stroke-width="0"/><ellipse rx="2.38409" ry="1.043039" transform="translate(661.10463 158.291487)" fill="#d2dbed" stroke-width="0"/><ellipse rx="2.38409" ry="1.043039" transform="translate(671.10463 138.291487)" fill="#d2dbed" stroke-width="0"/><ellipse rx="2.38409" ry="1.043039" transform="translate(701.10463 128.291487)" fill="#d2dbed" stroke-width="0"/><ellipse rx="2.38409" ry="1.043039" transform="translate(711.10463 129.291487)" fill="#d2dbed" stroke-width="0"/><ellipse rx="2.38409" ry="1.043039" transform="translate(701.10463 118.291487)" fill="#d2dbed" stroke-width="0"/><ellipse rx="2.38409" ry="1.043039" transform="translate(750.10463 134.291487)" fill="#d2dbed" stroke-width="0"/><ellipse rx="2.38409" ry="1.043039" transform="translate(691.10463 138.291487)" fill="#d2dbed" stroke-width="0"/><ellipse rx="2.38409" ry="1.043039" transform="translate(641.10463 158.291487)" fill="#d2dbed" stroke-width="0"/><ellipse rx="2.38409" ry="1.043039" transform="translate(765.10463 140.291487)" fill="#d2dbed" stroke-width="0"/><ellipse rx="2.38409" ry="1.043039" transform="translate(775.10463 150.291487)" fill="#d2dbed" stroke-width="0"/><ellipse rx="2.38409" ry="1.043039" transform="translate(745.10463 148.291487)" fill="#d2dbed" stroke-width="0"/><ellipse rx="2.38409" ry="1.043039" transform="translate(755.10463 150.291487)" fill="#d2dbed" stroke-width="0"/><ellipse rx="2.38409" ry="1.043039" transform="translate(725.10463 140.291487)" fill="#d2dbed" stroke-width="0"/><ellipse rx="2.38409" ry="1.043039" transform="translate(725.10463 150.291487)" fill="#d2dbed" stroke-width="0"/><ellipse rx="2.38409" ry="1.043039" transform="translate(705.10463 150.291487)" fill="#d2dbed" stroke-width="0"/><ellipse rx="2.38409" ry="1.043039" transform="translate(705.10463 150.291487)" fill="#d2dbed" stroke-width="0"/><ellipse rx="2.38409" ry="1.043039" transform="translate(695.10463 146.291487)" fill="#d2dbed" stroke-width="0"/><ellipse rx="2.38409" ry="1.043039" transform="translate(675.10463 126.291487)" fill="#d2dbed" stroke-width="0"/><ellipse rx="2.38409" ry="1.043039" transform="translate(648.10463 147.291487)" fill="#d2dbed" stroke-width="0"/><ellipse rx="2.38409" ry="1.043039" transform="translate(625.10463 167.291487)" fill="#d2dbed" stroke-width="0"/><ellipse rx="2.38409" ry="1.043039" transform="translate(354.10463 180.291487)" fill="#d2dbed" stroke-width="0"/><ellipse rx="2.38409" ry="1.043039" transform="translate(177.10463 180.291487)" fill="#d2dbed" stroke-width="0"/><ellipse rx="2.38409" ry="1.043039" transform="translate(157.10463 176.291487)" fill="#d2dbed" stroke-width="0"/><ellipse rx="2.38409" ry="1.043039" transform="translate(685.10463 149.291487)" fill="#d2dbed" stroke-width="0"/><ellipse rx="2.38409" ry="1.043039" transform="translate(695.10463 166.291487)" fill="#d2dbed" stroke-width="0"/><ellipse rx="2.38409" ry="1.043039" transform="translate(735.10463 146.291487)" fill="#d2dbed" stroke-width="0"/><ellipse rx="2.38409" ry="1.043039" transform="translate(785.10463 154.291487)" fill="#d2dbed" stroke-width="0"/><ellipse rx="2.38409" ry="1.043039" transform="translate(785.10463 164.291487)" fill="#d2dbed" stroke-width="0"/><ellipse rx="2.38409" ry="1.043039" transform="translate(793.10463 164.291487)" fill="#d2dbed" stroke-width="0"/><ellipse rx="2.38409" ry="1.043039" transform="translate(794.10463 173.291487)" fill="#d2dbed" stroke-width="0"/><ellipse rx="2.38409" ry="1.043039" transform="translate(800.10463 179.291487)" fill="#d2dbed" stroke-width="0"/><ellipse rx="2.38409" ry="1.043039" transform="translate(804.10463 188.291487)" fill="#d2dbed" stroke-width="0"/><ellipse rx="2.38409" ry="1.043039" transform="translate(809.10463 200.291487)" fill="#d2dbed" stroke-width="0"/><ellipse rx="2.38409" ry="1.043039" transform="translate(809.10463 210.291487)" fill="#d2dbed" stroke-width="0"/><ellipse rx="2.38409" ry="1.043039" transform="translate(803.10463 204.291487)" fill="#d2dbed" stroke-width="0"/><ellipse rx="2.38409" ry="1.043039" transform="translate(800.10463 196.291487)" fill="#d2dbed" stroke-width="0"/><ellipse rx="2.38409" ry="1.043039" transform="translate(810.10463 216.291487)" fill="#d2dbed" stroke-width="0"/><ellipse rx="2.38409" ry="1.043039" transform="translate(740.10463 156.291487)" fill="#d2dbed" stroke-width="0"/><ellipse rx="2.38409" ry="1.043039" transform="translate(710.10463 163.291487)" fill="#d2dbed" stroke-width="0"/><ellipse rx="2.38409" ry="1.043039" transform="translate(650.10463 166.291487)" fill="#d2dbed" stroke-width="0"/><ellipse rx="2.38409" ry="1.043039" transform="translate(810.10463 226.291487)" fill="#d2dbed" stroke-width="0"/><ellipse rx="2.38409" ry="1.043039" transform="translate(818.10463 246.291487)" fill="#d2dbed" stroke-width="0"/><ellipse rx="2.38409" ry="1.043039" transform="translate(817.10463 254.291487)" fill="#d2dbed" stroke-width="0"/><ellipse rx="2.38409" ry="1.043039" transform="translate(823.10463 258.291487)" fill="#d2dbed" stroke-width="0"/><ellipse rx="2.38409" ry="1.043039" transform="translate(830.10463 266.291487)" fill="#d2dbed" stroke-width="0"/><ellipse rx="2.38409" ry="1.043039" transform="translate(840.10463 271.291487)" fill="#d2dbed" stroke-width="0"/><ellipse rx="2.38409" ry="1.043039" transform="translate(850.10463 271.291487)" fill="#d2dbed" stroke-width="0"/><ellipse rx="2.38409" ry="1.043039" transform="translate(846.10463 275.291487)" fill="#d2dbed" stroke-width="0"/><ellipse rx="2.38409" ry="1.043039" transform="translate(859.10463 271.291487)" fill="#d2dbed" stroke-width="0"/><ellipse rx="2.38409" ry="1.043039" transform="translate(869.10463 266.291487)" fill="#d2dbed" stroke-width="0"/><ellipse rx="2.38409" ry="1.043039" transform="translate(879.10463 261.291487)" fill="#d2dbed" stroke-width="0"/><ellipse rx="2.38409" ry="1.043039" transform="translate(889.10463 251.291487)" fill="#d2dbed" stroke-width="0"/><ellipse rx="2.38409" ry="1.043039" transform="translate(895.10463 247.291487)" fill="#d2dbed" stroke-width="0"/><ellipse rx="2.38409" ry="1.043039" transform="translate(898.10463 241.291487)" fill="#d2dbed" stroke-width="0"/><ellipse rx="2.38409" ry="1.043039" transform="translate(908.10463 231.291487)" fill="#d2dbed" stroke-width="0"/><ellipse rx="2.38409" ry="1.043039" transform="translate(938.10463 211.291487)" fill="#d2dbed" stroke-width="0"/><ellipse rx="2.38409" ry="1.043039" transform="translate(950.10463 202.291487)" fill="#d2dbed" stroke-width="0"/><ellipse rx="2.38409" ry="1.043039" transform="translate(968.10463 211.291487)" fill="#d2dbed" stroke-width="0"/><ellipse rx="2.38409" ry="1.043039" transform="translate(975.10463 216.291487)" fill="#d2dbed" stroke-width="0"/><ellipse rx="2.38409" ry="1.043039" transform="translate(916.10463 221.291487)" fill="#d2dbed" stroke-width="0"/><ellipse rx="2.38409" ry="1.043039" transform="translate(980.10463 225.291487)" fill="#d2dbed" stroke-width="0"/><ellipse rx="2.38409" ry="1.043039" transform="translate(985.10463 231.291487)" fill="#d2dbed" stroke-width="0"/><ellipse rx="2.38409" ry="1.043039" transform="translate(952.10463 215.291487)" fill="#d2dbed" stroke-width="0"/><ellipse rx="2.38409" ry="1.043039" transform="translate(989.10463 235.291487)" fill="#d2dbed" stroke-width="0"/><ellipse rx="2.38409" ry="1.043039" transform="translate(978.10463 231.291487)" fill="#d2dbed" stroke-width="0"/><ellipse rx="2.38409" ry="1.043039" transform="translate(992.10463 241.291487)" fill="#d2dbed" stroke-width="0"/><ellipse rx="2.38409" ry="1.043039" transform="translate(998.10463 261.291487)" fill="#d2dbed" stroke-width="0"/><ellipse rx="2.38409" ry="1.043039" transform="translate(1004.10463 265.291487)" fill="#d2dbed" stroke-width="0"/><ellipse rx="2.38409" ry="1.043039" transform="translate(1011.10463 275.291487)" fill="#d2dbed" stroke-width="0"/><ellipse rx="2.38409" ry="1.043039" transform="translate(1015.10463 283.291487)" fill="#d2dbed" stroke-width="0"/><ellipse rx="2.38409" ry="1.043039" transform="translate(1035.10463 303.291487)" fill="#d2dbed" stroke-width="0"/><ellipse rx="2.38409" ry="1.043039" transform="translate(1015.10463 293.291487)" fill="#d2dbed" stroke-width="0"/><ellipse rx="2.38409" ry="1.043039" transform="translate(998.10463 253.291487)" fill="#d2dbed" stroke-width="0"/><ellipse rx="2.38409" ry="1.043039" transform="translate(1015.10463 293.291487)" fill="#d2dbed" stroke-width="0"/><ellipse rx="2.38409" ry="1.043039" transform="translate(934.10463 218.291487)" fill="#d2dbed" stroke-width="0"/><ellipse rx="2.38409" ry="1.043039" transform="translate(945.10463 223.291487)" fill="#d2dbed" stroke-width="0"/><ellipse rx="2.38409" ry="1.043039" transform="translate(925.10463 233.291487)" fill="#d2dbed" stroke-width="0"/><ellipse rx="2.38409" ry="1.043039" transform="translate(955.10463 223.291487)" fill="#d2dbed" stroke-width="0"/><ellipse rx="2.38409" ry="1.043039" transform="translate(955.10463 233.291487)" fill="#d2dbed" stroke-width="0"/><ellipse rx="2.38409" ry="1.043039" transform="translate(945.10463 223.291487)" fill="#d2dbed" stroke-width="0"/><ellipse rx="2.38409" ry="1.043039" transform="translate(796.10463 184.291487)" fill="#d2dbed" stroke-width="0"/><ellipse rx="2.38409" ry="1.043039" transform="translate(807.10463 194.291487)" fill="#d2dbed" stroke-width="0"/><ellipse rx="2.38409" ry="1.043039" transform="translate(671.10463 148.291487)" fill="#d2dbed" stroke-width="0"/><ellipse rx="2.38409" ry="1.043039" transform="translate(701.10463 118.291487)" fill="#d2dbed" stroke-width="0"/><ellipse rx="2.38409" ry="1.043039" transform="translate(526.10463 266.291487)" fill="#d2dbed" stroke-width="0"/><ellipse rx="2.38409" ry="1.043039" transform="translate(326.10463 200.291487)" fill="#d2dbed" stroke-width="0"/><ellipse rx="2.38409" ry="1.043039" transform="translate(126.10463 191.291487)" fill="#d2dbed" stroke-width="0"/><ellipse rx="0.632143" ry="0.632143" transform="translate(63.343159 254.815038)" fill="#d2dbed" stroke-width="0"/><ellipse rx="0.632143" ry="0.632143" transform="translate(73.343159 244.815038)" fill="#d2dbed" stroke-width="0"/><ellipse rx="0.632143" ry="0.632143" transform="translate(73.343159 244.815038)" fill="#d2dbed" stroke-width="0"/><ellipse rx="0.632143" ry="0.632143" transform="translate(93.343159 236.815038)" fill="#d2dbed" stroke-width="0"/><ellipse rx="0.632143" ry="0.632143" transform="translate(123.343159 216.815038)" fill="#d2dbed" stroke-width="0"/><ellipse rx="0.632143" ry="0.632143" transform="translate(134.343159 212.815038)" fill="#d2dbed" stroke-width="0"/><ellipse rx="0.632143" ry="0.632143" transform="translate(174.343159 192.815038)" fill="#d2dbed" stroke-width="0"/><ellipse rx="0.632143" ry="0.632143" transform="translate(156.343159 192.815038)" fill="#d2dbed" stroke-width="0"/><ellipse rx="0.632143" ry="0.632143" transform="translate(186.343159 212.815038)" fill="#d2dbed" stroke-width="0"/><ellipse rx="0.632143" ry="0.632143" transform="translate(216.343159 222.815038)" fill="#d2dbed" stroke-width="0"/><ellipse rx="0.632143" ry="0.632143" transform="translate(109.343159 199.815038)" fill="#d2dbed" stroke-width="0"/><ellipse rx="0.632143" ry="0.632143" transform="translate(79.343159 229.815038)" fill="#d2dbed" stroke-width="0"/><ellipse rx="0.632143" ry="0.632143" transform="translate(80.343159 239.815038)" fill="#d2dbed" stroke-width="0"/><ellipse rx="0.632143" ry="0.632143" transform="translate(104.343159 219.815038)" fill="#d2dbed" stroke-width="0"/><ellipse rx="0.632143" ry="0.632143" transform="translate(60.343159 249.815038)" fill="#d2dbed" stroke-width="0"/><ellipse rx="0.632143" ry="0.632143" transform="translate(40.343159 269.815038)" fill="#d2dbed" stroke-width="0"/><ellipse rx="0.632143" ry="0.632143" transform="translate(48.343159 267.815038)" fill="#d2dbed" stroke-width="0"/><ellipse rx="0.632143" ry="0.632143" transform="translate(24.343159 287.815038)" fill="#d2dbed" stroke-width="0"/><ellipse rx="0.632143" ry="0.632143" transform="translate(174.343159 213.815038)" fill="#d2dbed" stroke-width="0"/><ellipse rx="0.632143" ry="0.632143" transform="translate(154.343159 204.815038)" fill="#d2dbed" stroke-width="0"/><ellipse rx="0.632143" ry="0.632143" transform="translate(124.343159 196.815038)" fill="#d2dbed" stroke-width="0"/><ellipse rx="0.632143" ry="0.632143" transform="translate(334.343159 206.815038)" fill="#d2dbed" stroke-width="0"/><ellipse rx="0.632143" ry="0.632143" transform="translate(354.343159 196.815038)" fill="#d2dbed" stroke-width="0"/><ellipse rx="0.632143" ry="0.632143" transform="translate(384.343159 196.815038)" fill="#d2dbed" stroke-width="0"/><ellipse rx="0.632143" ry="0.632143" transform="translate(394.343159 196.815038)" fill="#d2dbed" stroke-width="0"/><ellipse rx="0.632143" ry="0.632143" transform="translate(364.343159 203.815038)" fill="#d2dbed" stroke-width="0"/><ellipse rx="0.632143" ry="0.632143" transform="translate(394.343159 203.815038)" fill="#d2dbed" stroke-width="0"/><ellipse rx="0.632143" ry="0.632143" transform="translate(414.343159 203.815038)" fill="#d2dbed" stroke-width="0"/><ellipse rx="0.632143" ry="0.632143" transform="translate(414.343159 213.815038)" fill="#d2dbed" stroke-width="0"/><ellipse rx="0.632143" ry="0.632143" transform="translate(233.343159 225.815038)" fill="#d2dbed" stroke-width="0"/><ellipse rx="0.632143" ry="0.632143" transform="translate(343.343159 212.815038)" fill="#d2dbed" stroke-width="0"/><ellipse rx="0.632143" ry="0.632143" transform="translate(364.343159 211.815038)" fill="#d2dbed" stroke-width="0"/><ellipse rx="0.632143" ry="0.632143" transform="translate(415.343159 219.815038)" fill="#d2dbed" stroke-width="0"/><ellipse rx="0.632143" ry="0.632143" transform="translate(433.343159 228.815038)" fill="#d2dbed" stroke-width="0"/><ellipse rx="0.632143" ry="0.632143" transform="translate(603.343159 208.815038)" fill="#d2dbed" stroke-width="0"/><ellipse rx="0.632143" ry="0.632143" transform="translate(623.343159 188.815038)" fill="#d2dbed" stroke-width="0"/><ellipse rx="0.632143" ry="0.632143" transform="translate(553.343159 258.815038)" fill="#d2dbed" stroke-width="0"/><ellipse rx="0.632143" ry="0.632143" transform="translate(523.343159 268.815038)" fill="#d2dbed" stroke-width="0"/><ellipse rx="0.632143" ry="0.632143" transform="translate(483.343159 268.815038)" fill="#d2dbed" stroke-width="0"/><ellipse rx="0.632143" ry="0.632143" transform="translate(453.343159 248.815038)" fill="#d2dbed" stroke-width="0"/><ellipse rx="0.632143" ry="0.632143" transform="translate(463.343159 258.815038)" fill="#d2dbed" stroke-width="0"/><ellipse rx="0.632143" ry="0.632143" transform="translate(633.343159 177.815038)" fill="#d2dbed" stroke-width="0"/><ellipse rx="0.632143" ry="0.632143" transform="translate(643.343159 177.815038)" fill="#d2dbed" stroke-width="0"/><ellipse rx="0.632143" ry="0.632143" transform="translate(643.343159 157.815038)" fill="#d2dbed" stroke-width="0"/><ellipse rx="0.632143" ry="0.632143" transform="translate(663.343159 147.815038)" fill="#d2dbed" stroke-width="0"/><ellipse rx="0.632143" ry="0.632143" transform="translate(683.343159 137.815038)" fill="#d2dbed" stroke-width="0"/><ellipse rx="0.632143" ry="0.632143" transform="translate(693.343159 126.815038)" fill="#d2dbed" stroke-width="0"/><ellipse rx="0.632143" ry="0.632143" transform="translate(723.343159 126.815038)" fill="#d2dbed" stroke-width="0"/><ellipse rx="0.632143" ry="0.632143" transform="translate(733.343159 136.815038)" fill="#d2dbed" stroke-width="0"/><ellipse rx="0.632143" ry="0.632143" transform="translate(752.343159 141.815038)" fill="#d2dbed" stroke-width="0"/><ellipse rx="0.632143" ry="0.632143" transform="translate(772.343159 141.815038)" fill="#d2dbed" stroke-width="0"/><ellipse rx="0.632143" ry="0.632143" transform="translate(780.343159 154.815038)" fill="#d2dbed" stroke-width="0"/><ellipse rx="0.632143" ry="0.632143" transform="translate(710.343159 144.815038)" fill="#d2dbed" stroke-width="0"/><ellipse rx="0.632143" ry="0.632143" transform="translate(800.343159 174.815038)" fill="#d2dbed" stroke-width="0"/><ellipse rx="0.632143" ry="0.632143" transform="translate(799.343159 188.815038)" fill="#d2dbed" stroke-width="0"/><ellipse rx="0.632143" ry="0.632143" transform="translate(789.343159 160.815038)" fill="#d2dbed" stroke-width="0"/><ellipse rx="0.632143" ry="0.632143" transform="translate(809.343159 200.815038)" fill="#d2dbed" stroke-width="0"/><ellipse rx="0.632143" ry="0.632143" transform="translate(809.343159 220.815038)" fill="#d2dbed" stroke-width="0"/><ellipse rx="0.632143" ry="0.632143" transform="translate(757.343159 154.815038)" fill="#d2dbed" stroke-width="0"/><ellipse rx="0.632143" ry="0.632143" transform="translate(727.343159 154.815038)" fill="#d2dbed" stroke-width="0"/><ellipse rx="0.632143" ry="0.632143" transform="translate(687.343159 154.815038)" fill="#d2dbed" stroke-width="0"/><ellipse rx="0.632143" ry="0.632143" transform="translate(667.343159 164.815038)" fill="#d2dbed" stroke-width="0"/><ellipse rx="0.632143" ry="0.632143" transform="translate(697.343159 163.815038)" fill="#d2dbed" stroke-width="0"/><ellipse rx="0.632143" ry="0.632143" transform="translate(737.343159 163.815038)" fill="#d2dbed" stroke-width="0"/><ellipse rx="0.632143" ry="0.632143" transform="translate(767.343159 163.815038)" fill="#d2dbed" stroke-width="0"/><ellipse rx="0.632143" ry="0.632143" transform="translate(756.343159 167.815038)" fill="#d2dbed" stroke-width="0"/><ellipse rx="0.632143" ry="0.632143" transform="translate(757.343159 173.815038)" fill="#d2dbed" stroke-width="0"/><ellipse rx="0.632143" ry="0.632143" transform="translate(770.343159 167.815038)" fill="#d2dbed" stroke-width="0"/><ellipse rx="0.632143" ry="0.632143" transform="translate(726.343159 167.815038)" fill="#d2dbed" stroke-width="0"/><ellipse rx="0.632143" ry="0.632143" transform="translate(727.343159 173.815038)" fill="#d2dbed" stroke-width="0"/><ellipse rx="0.632143" ry="0.632143" transform="translate(740.343159 167.815038)" fill="#d2dbed" stroke-width="0"/><ellipse rx="0.632143" ry="0.632143" transform="translate(686.343159 167.815038)" fill="#d2dbed" stroke-width="0"/><ellipse rx="0.632143" ry="0.632143" transform="translate(687.343159 173.815038)" fill="#d2dbed" stroke-width="0"/><ellipse rx="0.632143" ry="0.632143" transform="translate(700.343159 167.815038)" fill="#d2dbed" stroke-width="0"/><ellipse rx="0.632143" ry="0.632143" transform="translate(656.343159 168.815038)" fill="#d2dbed" stroke-width="0"/><ellipse rx="0.632143" ry="0.632143" transform="translate(657.576752 174.815038)" fill="#d2dbed" stroke-width="0"/><ellipse rx="0.632143" ry="0.632143" transform="translate(670.343159 168.815038)" fill="#d2dbed" stroke-width="0"/><ellipse rx="0.632143" ry="0.632143" transform="translate(814.343159 236.815038)" fill="#d2dbed" stroke-width="0"/><ellipse rx="0.632143" ry="0.632143" transform="translate(824.343159 256.815038)" fill="#d2dbed" stroke-width="0"/><ellipse rx="0.632143" ry="0.632143" transform="translate(814.343159 246.815038)" fill="#d2dbed" stroke-width="0"/><ellipse rx="0.632143" ry="0.632143" transform="translate(876.343159 268.815038)" fill="#d2dbed" stroke-width="0"/><ellipse rx="0.632143" ry="0.632143" transform="translate(898.343159 255.815038)" fill="#d2dbed" stroke-width="0"/><ellipse rx="0.632143" ry="0.632143" transform="translate(917.343159 234.815038)" fill="#d2dbed" stroke-width="0"/><ellipse rx="0.632143" ry="0.632143" transform="translate(924.343159 224.815038)" fill="#d2dbed" stroke-width="0"/><ellipse rx="0.632143" ry="0.632143" transform="translate(944.343159 214.815038)" fill="#d2dbed" stroke-width="0"/><ellipse rx="0.632143" ry="0.632143" transform="translate(963.343159 206.815038)" fill="#d2dbed" stroke-width="0"/><ellipse rx="0.632143" ry="0.632143" transform="translate(943.343159 208.815038)" fill="#d2dbed" stroke-width="0"/><ellipse rx="0.632143" ry="0.632143" transform="translate(983.343159 223.815038)" fill="#d2dbed" stroke-width="0"/><ellipse rx="0.632143" ry="0.632143" transform="translate(973.343159 213.815038)" fill="#d2dbed" stroke-width="0"/><ellipse rx="0.632143" ry="0.632143" transform="translate(964.343159 230.815038)" fill="#d2dbed" stroke-width="0"/><ellipse rx="0.632143" ry="0.632143" transform="translate(944.343159 230.815038)" fill="#d2dbed" stroke-width="0"/><ellipse rx="0.632143" ry="0.632143" transform="translate(999.343159 250.815038)" fill="#d2dbed" stroke-width="0"/><ellipse rx="0.632143" ry="0.632143" transform="translate(989.343159 240.815038)" fill="#d2dbed" stroke-width="0"/><ellipse rx="0.632143" ry="0.632143" transform="translate(1009.343159 270.815038)" fill="#d2dbed" stroke-width="0"/><ellipse rx="0.632143" ry="0.632143" transform="translate(1021.343159 291.815038)" fill="#d2dbed" stroke-width="0"/><ellipse rx="0.632143" ry="0.632143" transform="translate(1031.343159 301.815038)" fill="#d2dbed" stroke-width="0"/><ellipse rx="0.632143" ry="0.632143" transform="translate(1044.343159 309.815038)" fill="#d2dbed" stroke-width="0"/><ellipse rx="0.632143" ry="0.632143" transform="translate(1019.343159 276.815038)" fill="#d2dbed" stroke-width="0"/><ellipse rx="0.632143" ry="0.632143" transform="translate(1019.343159 276.815038)" fill="#d2dbed" stroke-width="0"/><ellipse rx="0.632143" ry="0.632143" transform="translate(1016.343159 272.815038)" fill="#d2dbed" stroke-width="0"/><ellipse rx="0.632143" ry="0.632143" transform="translate(1005.343159 276.815038)" fill="#d2dbed" stroke-width="0"/><ellipse rx="0.632143" ry="0.632143" transform="translate(1006.576752 282.815038)" fill="#d2dbed" stroke-width="0"/><ellipse rx="0.632143" ry="0.632143" transform="translate(1016.343159 272.815038)" fill="#d2dbed" stroke-width="0"/><ellipse rx="0.632143" ry="0.632143" transform="translate(1005.343159 276.815038)" fill="#d2dbed" stroke-width="0"/><ellipse rx="0.632143" ry="0.632143" transform="translate(1006.576752 282.815038)" fill="#d2dbed" stroke-width="0"/><ellipse rx="0.632143" ry="0.632143" transform="translate(1041.343159 305.815038)" fill="#d2dbed" stroke-width="0"/><ellipse rx="0.632143" ry="0.632143" transform="translate(1030.343159 309.815038)" fill="#d2dbed" stroke-width="0"/><ellipse rx="0.632143" ry="0.632143" transform="translate(1031.576752 315.815038)" fill="#d2dbed" stroke-width="0"/><ellipse rx="0.632143" ry="0.632143" transform="translate(1028.343159 297.815038)" fill="#d2dbed" stroke-width="0"/><ellipse rx="0.632143" ry="0.632143" transform="translate(1017.343159 301.815038)" fill="#d2dbed" stroke-width="0"/><ellipse rx="0.632143" ry="0.632143" transform="translate(1018.576752 307.815038)" fill="#d2dbed" stroke-width="0"/><ellipse rx="0.632143" ry="0.632143" transform="translate(1018.343159 287.815038)" fill="#d2dbed" stroke-width="0"/><ellipse rx="0.632143" ry="0.632143" transform="translate(1007.343159 291.815038)" fill="#d2dbed" stroke-width="0"/><ellipse rx="0.632143" ry="0.632143" transform="translate(1008.576752 297.815038)" fill="#d2dbed" stroke-width="0"/><ellipse rx="0.632143" ry="0.632143" transform="translate(1006.343159 266.815038)" fill="#d2dbed" stroke-width="0"/><ellipse rx="0.632143" ry="0.632143" transform="translate(995.343159 270.815038)" fill="#d2dbed" stroke-width="0"/><ellipse rx="0.632143" ry="0.632143" transform="translate(996.576752 276.815038)" fill="#d2dbed" stroke-width="0"/><ellipse rx="0.632143" ry="0.632143" transform="translate(986.343159 236.815038)" fill="#d2dbed" stroke-width="0"/><ellipse rx="0.632143" ry="0.632143" transform="translate(975.343159 240.815038)" fill="#d2dbed" stroke-width="0"/><ellipse rx="0.632143" ry="0.632143" transform="translate(976.576752 246.815038)" fill="#d2dbed" stroke-width="0"/><ellipse rx="0.632143" ry="0.632143" transform="translate(996.343159 246.815038)" fill="#d2dbed" stroke-width="0"/><ellipse rx="0.632143" ry="0.632143" transform="translate(985.343159 250.815038)" fill="#d2dbed" stroke-width="0"/><ellipse rx="0.632143" ry="0.632143" transform="translate(986.576752 256.815038)" fill="#d2dbed" stroke-width="0"/><ellipse rx="0.632143" ry="0.632143" transform="translate(941.343159 226.815038)" fill="#d2dbed" stroke-width="0"/><ellipse rx="0.632143" ry="0.632143" transform="translate(930.343159 230.815038)" fill="#d2dbed" stroke-width="0"/><ellipse rx="0.632143" ry="0.632143" transform="translate(931.576752 236.815038)" fill="#d2dbed" stroke-width="0"/><ellipse rx="0.632143" ry="0.632143" transform="translate(961.343159 226.815038)" fill="#d2dbed" stroke-width="0"/><ellipse rx="0.632143" ry="0.632143" transform="translate(950.343159 230.815038)" fill="#d2dbed" stroke-width="0"/><ellipse rx="0.632143" ry="0.632143" transform="translate(951.576752 236.815038)" fill="#d2dbed" stroke-width="0"/><ellipse rx="0.632143" ry="0.632143" transform="translate(970.343159 209.815038)" fill="#d2dbed" stroke-width="0"/><ellipse rx="0.632143" ry="0.632143" transform="translate(959.343159 213.815038)" fill="#d2dbed" stroke-width="0"/><ellipse rx="0.632143" ry="0.632143" transform="translate(960.576752 219.815038)" fill="#d2dbed" stroke-width="0"/><ellipse rx="0.632143" ry="0.632143" transform="translate(980.343159 219.815038)" fill="#d2dbed" stroke-width="0"/><ellipse rx="0.632143" ry="0.632143" transform="translate(969.343159 223.815038)" fill="#d2dbed" stroke-width="0"/><ellipse rx="0.632143" ry="0.632143" transform="translate(970.576752 229.815038)" fill="#d2dbed" stroke-width="0"/><ellipse rx="0.632143" ry="0.632143" transform="translate(940.343159 204.815038)" fill="#d2dbed" stroke-width="0"/><ellipse rx="0.632143" ry="0.632143" transform="translate(929.343159 208.815038)" fill="#d2dbed" stroke-width="0"/><ellipse rx="0.632143" ry="0.632143" transform="translate(930.576752 214.815038)" fill="#d2dbed" stroke-width="0"/><ellipse rx="0.632143" ry="0.632143" transform="translate(960.343159 202.815038)" fill="#d2dbed" stroke-width="0"/><ellipse rx="0.632143" ry="0.632143" transform="translate(949.343159 206.815038)" fill="#d2dbed" stroke-width="0"/><ellipse rx="0.632143" ry="0.632143" transform="translate(950.576752 212.815038)" fill="#d2dbed" stroke-width="0"/><ellipse rx="0.632143" ry="0.632143" transform="translate(941.343159 210.815038)" fill="#d2dbed" stroke-width="0"/><ellipse rx="0.632143" ry="0.632143" transform="translate(930.343159 214.815038)" fill="#d2dbed" stroke-width="0"/><ellipse rx="0.632143" ry="0.632143" transform="translate(931.576752 220.815038)" fill="#d2dbed" stroke-width="0"/><ellipse rx="0.632143" ry="0.632143" transform="translate(921.343159 220.815038)" fill="#d2dbed" stroke-width="0"/><ellipse rx="0.632143" ry="0.632143" transform="translate(910.343159 224.815038)" fill="#d2dbed" stroke-width="0"/><ellipse rx="0.632143" ry="0.632143" transform="translate(911.576752 230.815038)" fill="#d2dbed" stroke-width="0"/><ellipse rx="0.632143" ry="0.632143" transform="translate(914.343159 230.815038)" fill="#d2dbed" stroke-width="0"/><ellipse rx="0.632143" ry="0.632143" transform="translate(903.343159 234.815038)" fill="#d2dbed" stroke-width="0"/><ellipse rx="0.632143" ry="0.632143" transform="translate(904.576752 240.815038)" fill="#d2dbed" stroke-width="0"/><ellipse rx="0.632143" ry="0.632143" transform="translate(895.343159 251.815038)" fill="#d2dbed" stroke-width="0"/><ellipse rx="0.632143" ry="0.632143" transform="translate(884.343159 255.815038)" fill="#d2dbed" stroke-width="0"/><ellipse rx="0.632143" ry="0.632143" transform="translate(885.576752 261.815038)" fill="#d2dbed" stroke-width="0"/><ellipse rx="0.632143" ry="0.632143" transform="translate(873.343159 264.815038)" fill="#d2dbed" stroke-width="0"/><ellipse rx="0.632143" ry="0.632143" transform="translate(862.343159 268.815038)" fill="#d2dbed" stroke-width="0"/><ellipse rx="0.632143" ry="0.632143" transform="translate(863.576752 274.815038)" fill="#d2dbed" stroke-width="0"/><ellipse rx="0.632143" ry="0.632143" transform="translate(811.343159 242.815038)" fill="#d2dbed" stroke-width="0"/><ellipse rx="0.632143" ry="0.632143" transform="translate(800.343159 246.815038)" fill="#d2dbed" stroke-width="0"/><ellipse rx="0.632143" ry="0.632143" transform="translate(801.576752 252.815038)" fill="#d2dbed" stroke-width="0"/><ellipse rx="0.632143" ry="0.632143" transform="translate(821.343159 252.815038)" fill="#d2dbed" stroke-width="0"/><ellipse rx="0.632143" ry="0.632143" transform="translate(810.343159 256.815038)" fill="#d2dbed" stroke-width="0"/><ellipse rx="0.632143" ry="0.632143" transform="translate(811.576752 262.815038)" fill="#d2dbed" stroke-width="0"/><ellipse rx="0.632143" ry="0.632143" transform="translate(811.343159 232.815038)" fill="#d2dbed" stroke-width="0"/><ellipse rx="0.632143" ry="0.632143" transform="translate(800.343159 236.815038)" fill="#d2dbed" stroke-width="0"/><ellipse rx="0.632143" ry="0.632143" transform="translate(801.576752 242.815038)" fill="#d2dbed" stroke-width="0"/><ellipse rx="0.632143" ry="0.632143" transform="translate(676.343159 158.815038)" fill="#d2dbed" stroke-width="0"/><ellipse rx="0.632143" ry="0.632143" transform="translate(677.343159 164.815038)" fill="#d2dbed" stroke-width="0"/><ellipse rx="0.632143" ry="0.632143" transform="translate(690.343159 158.815038)" fill="#d2dbed" stroke-width="0"/><ellipse rx="0.632143" ry="0.632143" transform="translate(716.343159 158.815038)" fill="#d2dbed" stroke-width="0"/><ellipse rx="0.632143" ry="0.632143" transform="translate(717.343159 164.815038)" fill="#d2dbed" stroke-width="0"/><ellipse rx="0.632143" ry="0.632143" transform="translate(730.343159 158.815038)" fill="#d2dbed" stroke-width="0"/><ellipse rx="0.632143" ry="0.632143" transform="translate(746.343159 158.815038)" fill="#d2dbed" stroke-width="0"/><ellipse rx="0.632143" ry="0.632143" transform="translate(747.343159 164.815038)" fill="#d2dbed" stroke-width="0"/><ellipse rx="0.632143" ry="0.632143" transform="translate(760.343159 158.815038)" fill="#d2dbed" stroke-width="0"/><ellipse rx="0.632143" ry="0.632143" transform="translate(798.343159 224.815038)" fill="#d2dbed" stroke-width="0"/><ellipse rx="0.632143" ry="0.632143" transform="translate(799.343159 230.815038)" fill="#d2dbed" stroke-width="0"/><ellipse rx="0.632143" ry="0.632143" transform="translate(812.343159 224.815038)" fill="#d2dbed" stroke-width="0"/><ellipse rx="0.632143" ry="0.632143" transform="translate(798.343159 204.815038)" fill="#d2dbed" stroke-width="0"/><ellipse rx="0.632143" ry="0.632143" transform="translate(799.343159 210.815038)" fill="#d2dbed" stroke-width="0"/><ellipse rx="0.632143" ry="0.632143" transform="translate(812.343159 204.815038)" fill="#d2dbed" stroke-width="0"/><ellipse rx="0.632143" ry="0.632143" transform="translate(778.343159 164.815038)" fill="#d2dbed" stroke-width="0"/><ellipse rx="0.632143" ry="0.632143" transform="translate(779.343159 170.815038)" fill="#d2dbed" stroke-width="0"/><ellipse rx="0.632143" ry="0.632143" transform="translate(792.343159 164.815038)" fill="#d2dbed" stroke-width="0"/><ellipse rx="0.632143" ry="0.632143" transform="translate(788.343159 192.815038)" fill="#d2dbed" stroke-width="0"/><ellipse rx="0.632143" ry="0.632143" transform="translate(789.343159 198.815038)" fill="#d2dbed" stroke-width="0"/><ellipse rx="0.632143" ry="0.632143" transform="translate(802.343159 192.815038)" fill="#d2dbed" stroke-width="0"/><ellipse rx="0.632143" ry="0.632143" transform="translate(789.343159 178.815038)" fill="#d2dbed" stroke-width="0"/><ellipse rx="0.632143" ry="0.632143" transform="translate(790.343159 184.815038)" fill="#d2dbed" stroke-width="0"/><ellipse rx="0.632143" ry="0.632143" transform="translate(803.343159 178.815038)" fill="#d2dbed" stroke-width="0"/><ellipse rx="0.632143" ry="0.632143" transform="translate(699.343159 148.815038)" fill="#d2dbed" stroke-width="0"/><ellipse rx="0.632143" ry="0.632143" transform="translate(700.343159 154.815038)" fill="#d2dbed" stroke-width="0"/><ellipse rx="0.632143" ry="0.632143" transform="translate(713.343159 148.815038)" fill="#d2dbed" stroke-width="0"/><ellipse rx="0.632143" ry="0.632143" transform="translate(769.343159 158.815038)" fill="#d2dbed" stroke-width="0"/><ellipse rx="0.632143" ry="0.632143" transform="translate(770.343159 164.815038)" fill="#d2dbed" stroke-width="0"/><ellipse rx="0.632143" ry="0.632143" transform="translate(783.343159 158.815038)" fill="#d2dbed" stroke-width="0"/><ellipse rx="0.632143" ry="0.632143" transform="translate(761.343159 145.815038)" fill="#d2dbed" stroke-width="0"/><ellipse rx="0.632143" ry="0.632143" transform="translate(762.343159 151.815038)" fill="#d2dbed" stroke-width="0"/><ellipse rx="0.632143" ry="0.632143" transform="translate(775.343159 145.815038)" fill="#d2dbed" stroke-width="0"/><ellipse rx="0.632143" ry="0.632143" transform="translate(741.343159 145.815038)" fill="#d2dbed" stroke-width="0"/><ellipse rx="0.632143" ry="0.632143" transform="translate(742.343159 151.815038)" fill="#d2dbed" stroke-width="0"/><ellipse rx="0.632143" ry="0.632143" transform="translate(755.343159 145.815038)" fill="#d2dbed" stroke-width="0"/><ellipse rx="0.632143" ry="0.632143" transform="translate(722.343159 140.815038)" fill="#d2dbed" stroke-width="0"/><ellipse rx="0.632143" ry="0.632143" transform="translate(723.343159 146.815038)" fill="#d2dbed" stroke-width="0"/><ellipse rx="0.632143" ry="0.632143" transform="translate(736.343159 140.815038)" fill="#d2dbed" stroke-width="0"/><ellipse rx="0.632143" ry="0.632143" transform="translate(712.343159 130.815038)" fill="#d2dbed" stroke-width="0"/><ellipse rx="0.632143" ry="0.632143" transform="translate(713.343159 136.815038)" fill="#d2dbed" stroke-width="0"/><ellipse rx="0.632143" ry="0.632143" transform="translate(726.343159 130.815038)" fill="#d2dbed" stroke-width="0"/><ellipse rx="0.632143" ry="0.632143" transform="translate(682.343159 130.815038)" fill="#d2dbed" stroke-width="0"/><ellipse rx="0.632143" ry="0.632143" transform="translate(683.343159 136.815038)" fill="#d2dbed" stroke-width="0"/><ellipse rx="0.632143" ry="0.632143" transform="translate(696.343159 130.815038)" fill="#d2dbed" stroke-width="0"/><ellipse rx="0.632143" ry="0.632143" transform="translate(672.343159 141.815038)" fill="#d2dbed" stroke-width="0"/><ellipse rx="0.632143" ry="0.632143" transform="translate(673.343159 147.815038)" fill="#d2dbed" stroke-width="0"/><ellipse rx="0.632143" ry="0.632143" transform="translate(686.343159 141.815038)" fill="#d2dbed" stroke-width="0"/><ellipse rx="0.632143" ry="0.632143" transform="translate(652.343159 151.815038)" fill="#d2dbed" stroke-width="0"/><ellipse rx="0.632143" ry="0.632143" transform="translate(653.343159 157.815038)" fill="#d2dbed" stroke-width="0"/><ellipse rx="0.632143" ry="0.632143" transform="translate(666.343159 151.815038)" fill="#d2dbed" stroke-width="0"/><ellipse rx="0.632143" ry="0.632143" transform="translate(632.343159 161.815038)" fill="#d2dbed" stroke-width="0"/><ellipse rx="0.632143" ry="0.632143" transform="translate(633.343159 167.815038)" fill="#d2dbed" stroke-width="0"/><ellipse rx="0.632143" ry="0.632143" transform="translate(646.343159 161.815038)" fill="#d2dbed" stroke-width="0"/><ellipse rx="0.632143" ry="0.632143" transform="translate(632.343159 181.815038)" fill="#d2dbed" stroke-width="0"/><ellipse rx="0.632143" ry="0.632143" transform="translate(633.343159 187.815038)" fill="#d2dbed" stroke-width="0"/><ellipse rx="0.632143" ry="0.632143" transform="translate(646.343159 181.815038)" fill="#d2dbed" stroke-width="0"/><ellipse rx="0.632143" ry="0.632143" transform="translate(622.343159 181.815038)" fill="#d2dbed" stroke-width="0"/><ellipse rx="0.632143" ry="0.632143" transform="translate(623.343159 187.815038)" fill="#d2dbed" stroke-width="0"/><ellipse rx="0.632143" ry="0.632143" transform="translate(636.343159 181.815038)" fill="#d2dbed" stroke-width="0"/><ellipse rx="0.632143" ry="0.632143" transform="translate(452.343159 262.815038)" fill="#d2dbed" stroke-width="0"/><ellipse rx="0.632143" ry="0.632143" transform="translate(453.343159 268.815038)" fill="#d2dbed" stroke-width="0"/><ellipse rx="0.632143" ry="0.632143" transform="translate(466.343159 262.815038)" fill="#d2dbed" stroke-width="0"/><ellipse rx="0.632143" ry="0.632143" transform="translate(442.343159 252.815038)" fill="#d2dbed" stroke-width="0"/><ellipse rx="0.632143" ry="0.632143" transform="translate(443.343159 258.815038)" fill="#d2dbed" stroke-width="0"/><ellipse rx="0.632143" ry="0.632143" transform="translate(456.343159 252.815038)" fill="#d2dbed" stroke-width="0"/><ellipse rx="0.632143" ry="0.632143" transform="translate(472.343159 272.815038)" fill="#d2dbed" stroke-width="0"/><ellipse rx="0.632143" ry="0.632143" transform="translate(473.343159 278.815038)" fill="#d2dbed" stroke-width="0"/><ellipse rx="0.632143" ry="0.632143" transform="translate(486.343159 272.815038)" fill="#d2dbed" stroke-width="0"/><ellipse rx="0.632143" ry="0.632143" transform="translate(512.343159 272.815038)" fill="#d2dbed" stroke-width="0"/><ellipse rx="0.632143" ry="0.632143" transform="translate(513.343159 278.815038)" fill="#d2dbed" stroke-width="0"/><ellipse rx="0.632143" ry="0.632143" transform="translate(526.343159 272.815038)" fill="#d2dbed" stroke-width="0"/><ellipse rx="0.632143" ry="0.632143" transform="translate(542.343159 262.815038)" fill="#d2dbed" stroke-width="0"/><ellipse rx="0.632143" ry="0.632143" transform="translate(543.343159 268.815038)" fill="#d2dbed" stroke-width="0"/><ellipse rx="0.632143" ry="0.632143" transform="translate(556.343159 262.815038)" fill="#d2dbed" stroke-width="0"/><ellipse rx="0.632143" ry="0.632143" transform="translate(612.343159 192.815038)" fill="#d2dbed" stroke-width="0"/><ellipse rx="0.632143" ry="0.632143" transform="translate(613.343159 198.815038)" fill="#d2dbed" stroke-width="0"/><ellipse rx="0.632143" ry="0.632143" transform="translate(626.343159 192.815038)" fill="#d2dbed" stroke-width="0"/><ellipse rx="0.632143" ry="0.632143" transform="translate(592.343159 212.815038)" fill="#d2dbed" stroke-width="0"/><ellipse rx="0.632143" ry="0.632143" transform="translate(593.343159 218.815038)" fill="#d2dbed" stroke-width="0"/><ellipse rx="0.632143" ry="0.632143" transform="translate(606.343159 212.815038)" fill="#d2dbed" stroke-width="0"/><ellipse rx="0.632143" ry="0.632143" transform="translate(422.343159 232.815038)" fill="#d2dbed" stroke-width="0"/><ellipse rx="0.632143" ry="0.632143" transform="translate(423.343159 238.815038)" fill="#d2dbed" stroke-width="0"/><ellipse rx="0.632143" ry="0.632143" transform="translate(436.343159 232.815038)" fill="#d2dbed" stroke-width="0"/><ellipse rx="0.632143" ry="0.632143" transform="translate(395.343159 208.815038)" fill="#d2dbed" stroke-width="0"/><ellipse rx="0.632143" ry="0.632143" transform="translate(418.343159 223.815038)" fill="#d2dbed" stroke-width="0"/><ellipse rx="0.632143" ry="0.632143" transform="translate(428.343159 219.815038)" fill="#d2dbed" stroke-width="0"/><ellipse rx="0.632143" ry="0.632143" transform="translate(418.343159 229.815038)" fill="#d2dbed" stroke-width="0"/><ellipse rx="0.632143" ry="0.632143" transform="translate(408.343159 233.815038)" fill="#d2dbed" stroke-width="0"/><ellipse rx="0.632143" ry="0.632143" transform="translate(385.343159 218.815038)" fill="#d2dbed" stroke-width="0"/><ellipse rx="0.632143" ry="0.632143" transform="translate(405.343159 229.815038)" fill="#d2dbed" stroke-width="0"/><ellipse rx="0.632143" ry="0.632143" transform="translate(354.343159 221.815038)" fill="#d2dbed" stroke-width="0"/><ellipse rx="0.632143" ry="0.632143" transform="translate(333.343159 222.815038)" fill="#d2dbed" stroke-width="0"/><ellipse rx="0.632143" ry="0.632143" transform="translate(223.343159 235.815038)" fill="#d2dbed" stroke-width="0"/><ellipse rx="0.632143" ry="0.632143" transform="translate(404.343159 223.815038)" fill="#d2dbed" stroke-width="0"/><ellipse rx="0.632143" ry="0.632143" transform="translate(428.343159 219.815038)" fill="#d2dbed" stroke-width="0"/><ellipse rx="0.632143" ry="0.632143" transform="translate(418.343159 229.815038)" fill="#d2dbed" stroke-width="0"/><ellipse rx="0.632143" ry="0.632143" transform="translate(404.343159 213.815038)" fill="#d2dbed" stroke-width="0"/><ellipse rx="0.632143" ry="0.632143" transform="translate(384.343159 213.815038)" fill="#d2dbed" stroke-width="0"/><ellipse rx="0.632143" ry="0.632143" transform="translate(354.343159 213.815038)" fill="#d2dbed" stroke-width="0"/><ellipse rx="0.632143" ry="0.632143" transform="translate(384.343159 206.815038)" fill="#d2dbed" stroke-width="0"/><ellipse rx="0.632143" ry="0.632143" transform="translate(374.343159 206.815038)" fill="#d2dbed" stroke-width="0"/><ellipse rx="0.632143" ry="0.632143" transform="translate(344.343159 206.815038)" fill="#d2dbed" stroke-width="0"/><ellipse rx="0.632143" ry="0.632143" transform="translate(324.343159 216.815038)" fill="#d2dbed" stroke-width="0"/><ellipse rx="0.632143" ry="0.632143" transform="translate(114.343159 206.815038)" fill="#d2dbed" stroke-width="0"/><ellipse rx="0.632143" ry="0.632143" transform="translate(144.343159 214.815038)" fill="#d2dbed" stroke-width="0"/><ellipse rx="0.632143" ry="0.632143" transform="translate(164.343159 223.815038)" fill="#d2dbed" stroke-width="0"/><ellipse rx="0.632143" ry="0.632143" transform="translate(14.343159 297.815038)" fill="#d2dbed" stroke-width="0"/><ellipse rx="0.632143" ry="0.632143" transform="translate(38.343159 277.815038)" fill="#d2dbed" stroke-width="0"/><ellipse rx="0.632143" ry="0.632143" transform="translate(30.343159 279.815038)" fill="#d2dbed" stroke-width="0"/><ellipse rx="0.632143" ry="0.632143" transform="translate(50.343159 259.815038)" fill="#d2dbed" stroke-width="0"/><ellipse rx="0.632143" ry="0.632143" transform="translate(94.343159 229.815038)" fill="#d2dbed" stroke-width="0"/><ellipse rx="0.632143" ry="0.632143" transform="translate(70.343159 249.815038)" fill="#d2dbed" stroke-width="0"/><ellipse rx="0.632143" ry="0.632143" transform="translate(69.343159 239.815038)" fill="#d2dbed" stroke-width="0"/><ellipse rx="0.632143" ry="0.632143" transform="translate(99.343159 209.815038)" fill="#d2dbed" stroke-width="0"/><ellipse rx="0.632143" ry="0.632143" transform="translate(206.343159 232.815038)" fill="#d2dbed" stroke-width="0"/><ellipse rx="0.632143" ry="0.632143" transform="translate(176.343159 222.815038)" fill="#d2dbed" stroke-width="0"/><ellipse rx="0.632143" ry="0.632143" transform="translate(146.343159 202.815038)" fill="#d2dbed" stroke-width="0"/><ellipse rx="0.632143" ry="0.632143" transform="translate(164.343159 202.815038)" fill="#d2dbed" stroke-width="0"/><ellipse rx="0.632143" ry="0.632143" transform="translate(124.343159 222.815038)" fill="#d2dbed" stroke-width="0"/><ellipse rx="0.632143" ry="0.632143" transform="translate(113.343159 226.815038)" fill="#d2dbed" stroke-width="0"/><ellipse rx="0.632143" ry="0.632143" transform="translate(83.343159 246.815038)" fill="#d2dbed" stroke-width="0"/></svg>