<svg id="eEUFu184JLH1" xmlns="http://www.w3.org/2000/svg" xmlns:xlink="http://www.w3.org/1999/xlink" viewBox="0 0 640 480" shape-rendering="geometricPrecision" text-rendering="geometricPrecision"><path d="M198.544505,240c64.750065-48.718449,86.333419-31.181973,109.265733-24.437175s43.16671,24.437175,72.843823,24.437175s44.51567-74.348683,98.474057-77.046603q53.958387-2.69792,126.80221,90.380299q25.630234,72.843823,4.046879,111.963654c-21.583355,39.119831-196.948113,53.958387-338.58888,49.911508s-259.000259,44.515669-246.859622-26.979194q12.140637-71.494863,83.6355-110.614694Q133.794439,288.718449,198.544505,240Z" transform="translate(.000001 0)" fill="#8197cc" stroke-width="1.28"/><ellipse rx="2.573525" ry="1.102939" transform="translate(252.07324 258.020208)" fill="#d2dbed" stroke-width="0"/><ellipse rx="2.573525" ry="1.102939" transform="translate(252.07324 229.020208)" fill="#d2dbed" stroke-width="0"/><ellipse rx="2.573525" ry="1.102939" transform="translate(262.07324 229.020208)" fill="#d2dbed" stroke-width="0"/><ellipse rx="2.573525" ry="1.102939" transform="translate(242.07324 236.020208)" fill="#d2dbed" stroke-width="0"/><ellipse rx="2.573525" ry="1.102939" transform="translate(278.07324 232.020208)" fill="#d2dbed" stroke-width="0"/><ellipse rx="2.573525" ry="1.102939" transform="translate(252.07324 237.020208)" fill="#d2dbed" stroke-width="0"/><ellipse rx="2.573525" ry="1.102939" transform="translate(262.07324 238.020208)" fill="#d2dbed" stroke-width="0"/><ellipse rx="2.573525" ry="1.102939" transform="translate(238.07324 229.020208)" fill="#d2dbed" stroke-width="0"/><ellipse rx="2.573525" ry="1.102939" transform="translate(243.07324 220.020208)" fill="#d2dbed" stroke-width="0"/><ellipse rx="2.573525" ry="1.102939" transform="translate(280.646765 227.020208)" fill="#d2dbed" stroke-width="0"/><ellipse rx="2.573525" ry="1.102939" transform="translate(259.07324 214.020208)" fill="#d2dbed" stroke-width="0"/><ellipse rx="2.573525" ry="1.102939" transform="translate(283.07324 223.020208)" fill="#d2dbed" stroke-width="0"/><ellipse rx="2.573525" ry="1.102939" transform="translate(273.07324 222.020208)" fill="#d2dbed" stroke-width="0"/><ellipse rx="2.573525" ry="1.102939" transform="translate(299.07324 217.020208)" fill="#d2dbed" stroke-width="0"/><ellipse rx="2.573525" ry="1.102939" transform="translate(263.07324 221.020208)" fill="#d2dbed" stroke-width="0"/><ellipse rx="2.573525" ry="1.102939" transform="translate(216.07324 231.020208)" fill="#d2dbed" stroke-width="0"/><ellipse rx="2.573525" ry="1.102939" transform="translate(93.07324 291.020208)" fill="#d2dbed" stroke-width="0"/><ellipse rx="2.573525" ry="1.102939" transform="translate(378.07324 241.020208)" fill="#d2dbed" stroke-width="0"/><ellipse rx="2.573525" ry="1.102939" transform="translate(430.07324 210.020208)" fill="#d2dbed" stroke-width="0"/><ellipse rx="2.573525" ry="1.102939" transform="translate(463.07324 171.020208)" fill="#d2dbed" stroke-width="0"/><ellipse rx="2.573525" ry="1.102939" transform="translate(552.07324 238.020208)" fill="#d2dbed" stroke-width="0"/><ellipse rx="2.573525" ry="1.102939" transform="translate(552.07324 209.020208)" fill="#d2dbed" stroke-width="0"/><ellipse rx="2.573525" ry="1.102939" transform="translate(562.07324 209.020208)" fill="#d2dbed" stroke-width="0"/><ellipse rx="2.573525" ry="1.102939" transform="translate(542.07324 216.020208)" fill="#d2dbed" stroke-width="0"/><ellipse rx="2.573525" ry="1.102939" transform="translate(552.07324 217.020208)" fill="#d2dbed" stroke-width="0"/><ellipse rx="2.573525" ry="1.102939" transform="translate(562.07324 218.020208)" fill="#d2dbed" stroke-width="0"/><ellipse rx="2.573525" ry="1.102939" transform="translate(538.07324 209.020208)" fill="#d2dbed" stroke-width="0"/><ellipse rx="2.573525" ry="1.102939" transform="translate(543.07324 200.020208)" fill="#d2dbed" stroke-width="0"/><ellipse rx="2.573525" ry="1.102939" transform="translate(512.07324 208.020208)" fill="#d2dbed" stroke-width="0"/><ellipse rx="2.573525" ry="1.102939" transform="translate(512.07324 179.020208)" fill="#d2dbed" stroke-width="0"/><ellipse rx="2.573525" ry="1.102939" transform="translate(522.07324 179.020208)" fill="#d2dbed" stroke-width="0"/><ellipse rx="2.573525" ry="1.102939" transform="translate(502.07324 186.020208)" fill="#d2dbed" stroke-width="0"/><ellipse rx="2.573525" ry="1.102939" transform="translate(512.07324 187.020208)" fill="#d2dbed" stroke-width="0"/><ellipse rx="2.573525" ry="1.102939" transform="translate(522.07324 188.020208)" fill="#d2dbed" stroke-width="0"/><ellipse rx="2.573525" ry="1.102939" transform="translate(498.07324 179.020208)" fill="#d2dbed" stroke-width="0"/><ellipse rx="2.573525" ry="1.102939" transform="translate(503.07324 170.020208)" fill="#d2dbed" stroke-width="0"/><ellipse rx="2.573525" ry="1.102939" transform="translate(452.07324 208.020208)" fill="#d2dbed" stroke-width="0"/><ellipse rx="2.573525" ry="1.102939" transform="translate(452.07324 179.020208)" fill="#d2dbed" stroke-width="0"/><ellipse rx="2.573525" ry="1.102939" transform="translate(462.07324 179.020208)" fill="#d2dbed" stroke-width="0"/><ellipse rx="2.573525" ry="1.102939" transform="translate(442.07324 186.020208)" fill="#d2dbed" stroke-width="0"/><ellipse rx="2.573525" ry="1.102939" transform="translate(478.07324 182.020208)" fill="#d2dbed" stroke-width="0"/><ellipse rx="2.573525" ry="1.102939" transform="translate(452.07324 187.020208)" fill="#d2dbed" stroke-width="0"/><ellipse rx="2.573525" ry="1.102939" transform="translate(462.07324 188.020208)" fill="#d2dbed" stroke-width="0"/><ellipse rx="2.573525" ry="1.102939" transform="translate(480.646765 177.020208)" fill="#d2dbed" stroke-width="0"/><ellipse rx="2.573525" ry="1.102939" transform="translate(483.07324 173.020208)" fill="#d2dbed" stroke-width="0"/><ellipse rx="2.573525" ry="1.102939" transform="translate(473.07324 172.020208)" fill="#d2dbed" stroke-width="0"/><ellipse rx="2.573525" ry="1.102939" transform="translate(499.07324 167.020208)" fill="#d2dbed" stroke-width="0"/><ellipse rx="2.573525" ry="1.102939" transform="translate(419.07324 247.020208)" fill="#d2dbed" stroke-width="0"/><ellipse rx="2.573525" ry="1.102939" transform="translate(419.07324 218.020208)" fill="#d2dbed" stroke-width="0"/><ellipse rx="2.573525" ry="1.102939" transform="translate(429.07324 218.020208)" fill="#d2dbed" stroke-width="0"/><ellipse rx="2.573525" ry="1.102939" transform="translate(409.07324 225.020208)" fill="#d2dbed" stroke-width="0"/><ellipse rx="2.573525" ry="1.102939" transform="translate(445.07324 221.020208)" fill="#d2dbed" stroke-width="0"/><ellipse rx="2.573525" ry="1.102939" transform="translate(419.07324 226.020208)" fill="#d2dbed" stroke-width="0"/><ellipse rx="2.573525" ry="1.102939" transform="translate(429.07324 227.020208)" fill="#d2dbed" stroke-width="0"/><ellipse rx="2.573525" ry="1.102939" transform="translate(447.646765 216.020208)" fill="#d2dbed" stroke-width="0"/><ellipse rx="2.573525" ry="1.102939" transform="translate(468.646765 201.020208)" fill="#d2dbed" stroke-width="0"/><ellipse rx="2.573525" ry="1.102939" transform="translate(431.07324 194.020208)" fill="#d2dbed" stroke-width="0"/><ellipse rx="2.573525" ry="1.102939" transform="translate(426.07324 203.020208)" fill="#d2dbed" stroke-width="0"/><ellipse rx="2.573525" ry="1.102939" transform="translate(450.07324 212.020208)" fill="#d2dbed" stroke-width="0"/><ellipse rx="2.573525" ry="1.102939" transform="translate(440.07324 211.020208)" fill="#d2dbed" stroke-width="0"/><ellipse rx="2.573525" ry="1.102939" transform="translate(466.07324 206.020208)" fill="#d2dbed" stroke-width="0"/><ellipse rx="2.573525" ry="1.102939" transform="translate(367.07324 278.020208)" fill="#d2dbed" stroke-width="0"/><ellipse rx="2.573525" ry="1.102939" transform="translate(367.07324 249.020208)" fill="#d2dbed" stroke-width="0"/><ellipse rx="2.573525" ry="1.102939" transform="translate(377.07324 249.020208)" fill="#d2dbed" stroke-width="0"/><ellipse rx="2.573525" ry="1.102939" transform="translate(357.07324 256.020208)" fill="#d2dbed" stroke-width="0"/><ellipse rx="2.573525" ry="1.102939" transform="translate(393.07324 252.020208)" fill="#d2dbed" stroke-width="0"/><ellipse rx="2.573525" ry="1.102939" transform="translate(367.07324 257.020208)" fill="#d2dbed" stroke-width="0"/><ellipse rx="2.573525" ry="1.102939" transform="translate(377.07324 258.020208)" fill="#d2dbed" stroke-width="0"/><ellipse rx="2.573525" ry="1.102939" transform="translate(353.07324 249.020208)" fill="#d2dbed" stroke-width="0"/><ellipse rx="2.573525" ry="1.102939" transform="translate(358.07324 240.020208)" fill="#d2dbed" stroke-width="0"/><ellipse rx="2.573525" ry="1.102939" transform="translate(395.646765 247.020208)" fill="#d2dbed" stroke-width="0"/><ellipse rx="2.573525" ry="1.102939" transform="translate(416.646765 232.020208)" fill="#d2dbed" stroke-width="0"/><ellipse rx="2.573525" ry="1.102939" transform="translate(398.07324 243.020208)" fill="#d2dbed" stroke-width="0"/><ellipse rx="2.573525" ry="1.102939" transform="translate(388.07324 242.020208)" fill="#d2dbed" stroke-width="0"/><ellipse rx="2.573525" ry="1.102939" transform="translate(414.07324 237.020208)" fill="#d2dbed" stroke-width="0"/><ellipse rx="2.573525" ry="1.102939" transform="translate(82.07324 328.020208)" fill="#d2dbed" stroke-width="0"/><ellipse rx="2.573525" ry="1.102939" transform="translate(82.07324 299.020208)" fill="#d2dbed" stroke-width="0"/><ellipse rx="2.573525" ry="1.102939" transform="translate(92.07324 299.020208)" fill="#d2dbed" stroke-width="0"/><ellipse rx="2.573525" ry="1.102939" transform="translate(72.07324 306.020208)" fill="#d2dbed" stroke-width="0"/><ellipse rx="2.573525" ry="1.102939" transform="translate(108.07324 302.020208)" fill="#d2dbed" stroke-width="0"/><ellipse rx="2.573525" ry="1.102939" transform="translate(82.07324 307.020208)" fill="#d2dbed" stroke-width="0"/><ellipse rx="2.573525" ry="1.102939" transform="translate(92.07324 308.020208)" fill="#d2dbed" stroke-width="0"/><ellipse rx="2.573525" ry="1.102939" transform="translate(110.646765 297.020208)" fill="#d2dbed" stroke-width="0"/><ellipse rx="2.573525" ry="1.102939" transform="translate(131.646765 282.020208)" fill="#d2dbed" stroke-width="0"/><ellipse rx="2.573525" ry="1.102939" transform="translate(113.07324 293.020208)" fill="#d2dbed" stroke-width="0"/><ellipse rx="2.573525" ry="1.102939" transform="translate(103.07324 292.020208)" fill="#d2dbed" stroke-width="0"/><ellipse rx="2.573525" ry="1.102939" transform="translate(129.07324 287.020208)" fill="#d2dbed" stroke-width="0"/><ellipse rx="2.573525" ry="1.102939" transform="translate(132.07324 308.020208)" fill="#d2dbed" stroke-width="0"/><ellipse rx="2.573525" ry="1.102939" transform="translate(132.07324 279.020208)" fill="#d2dbed" stroke-width="0"/><ellipse rx="2.573525" ry="1.102939" transform="translate(142.07324 279.020208)" fill="#d2dbed" stroke-width="0"/><ellipse rx="2.573525" ry="1.102939" transform="translate(122.07324 286.020208)" fill="#d2dbed" stroke-width="0"/><ellipse rx="2.573525" ry="1.102939" transform="translate(158.07324 282.020208)" fill="#d2dbed" stroke-width="0"/><ellipse rx="2.573525" ry="1.102939" transform="translate(132.07324 287.020208)" fill="#d2dbed" stroke-width="0"/><ellipse rx="2.573525" ry="1.102939" transform="translate(142.07324 288.020208)" fill="#d2dbed" stroke-width="0"/><ellipse rx="2.573525" ry="1.102939" transform="translate(160.646765 277.020208)" fill="#d2dbed" stroke-width="0"/><ellipse rx="2.573525" ry="1.102939" transform="translate(181.646765 262.020208)" fill="#d2dbed" stroke-width="0"/><ellipse rx="2.573525" ry="1.102939" transform="translate(163.07324 273.020208)" fill="#d2dbed" stroke-width="0"/><ellipse rx="2.573525" ry="1.102939" transform="translate(153.07324 272.020208)" fill="#d2dbed" stroke-width="0"/><ellipse rx="2.573525" ry="1.102939" transform="translate(179.07324 267.020208)" fill="#d2dbed" stroke-width="0"/><ellipse rx="2.573525" ry="1.102939" transform="translate(162.07324 289.020208)" fill="#d2dbed" stroke-width="0"/><ellipse rx="2.573525" ry="1.102939" transform="translate(172.07324 260.020208)" fill="#d2dbed" stroke-width="0"/><ellipse rx="2.573525" ry="1.102939" transform="translate(188.07324 263.020208)" fill="#d2dbed" stroke-width="0"/><ellipse rx="2.573525" ry="1.102939" transform="translate(162.07324 268.020208)" fill="#d2dbed" stroke-width="0"/><ellipse rx="2.573525" ry="1.102939" transform="translate(172.07324 269.020208)" fill="#d2dbed" stroke-width="0"/><ellipse rx="2.573525" ry="1.102939" transform="translate(190.646765 258.020208)" fill="#d2dbed" stroke-width="0"/><ellipse rx="2.573525" ry="1.102939" transform="translate(211.646765 243.020208)" fill="#d2dbed" stroke-width="0"/><ellipse rx="2.573525" ry="1.102939" transform="translate(193.07324 254.020208)" fill="#d2dbed" stroke-width="0"/><ellipse rx="2.573525" ry="1.102939" transform="translate(183.07324 253.020208)" fill="#d2dbed" stroke-width="0"/><ellipse rx="2.573525" ry="1.102939" transform="translate(209.07324 248.020208)" fill="#d2dbed" stroke-width="0"/><ellipse rx="2.573525" ry="1.102939" transform="translate(205.07324 268.020208)" fill="#d2dbed" stroke-width="0"/><ellipse rx="2.573525" ry="1.102939" transform="translate(205.07324 239.020208)" fill="#d2dbed" stroke-width="0"/><ellipse rx="2.573525" ry="1.102939" transform="translate(215.07324 239.020208)" fill="#d2dbed" stroke-width="0"/><ellipse rx="2.573525" ry="1.102939" transform="translate(195.07324 246.020208)" fill="#d2dbed" stroke-width="0"/><ellipse rx="2.573525" ry="1.102939" transform="translate(231.07324 242.020208)" fill="#d2dbed" stroke-width="0"/><ellipse rx="2.573525" ry="1.102939" transform="translate(205.07324 247.020208)" fill="#d2dbed" stroke-width="0"/><ellipse rx="2.573525" ry="1.102939" transform="translate(215.07324 248.020208)" fill="#d2dbed" stroke-width="0"/><ellipse rx="2.573525" ry="1.102939" transform="translate(233.646765 237.020208)" fill="#d2dbed" stroke-width="0"/><ellipse rx="2.573525" ry="1.102939" transform="translate(254.646765 222.020208)" fill="#d2dbed" stroke-width="0"/><ellipse rx="2.573525" ry="1.102939" transform="translate(236.07324 233.020208)" fill="#d2dbed" stroke-width="0"/><ellipse rx="2.573525" ry="1.102939" transform="translate(226.07324 232.020208)" fill="#d2dbed" stroke-width="0"/><ellipse rx="2.573525" ry="1.102939" transform="translate(252.07324 227.020208)" fill="#d2dbed" stroke-width="0"/><ellipse rx="2.573525" ry="1.102939" transform="translate(331.07324 258.020208)" fill="#d2dbed" stroke-width="0"/><ellipse rx="2.573525" ry="1.102939" transform="translate(331.07324 229.020208)" fill="#d2dbed" stroke-width="0"/><ellipse rx="2.573525" ry="1.102939" transform="translate(321.07324 236.020208)" fill="#d2dbed" stroke-width="0"/><ellipse rx="2.573525" ry="1.102939" transform="translate(331.07324 237.020208)" fill="#d2dbed" stroke-width="0"/><ellipse rx="2.573525" ry="1.102939" transform="translate(341.07324 238.020208)" fill="#d2dbed" stroke-width="0"/><ellipse rx="2.573525" ry="1.102939" transform="translate(317.07324 229.020208)" fill="#d2dbed" stroke-width="0"/><ellipse rx="2.573525" ry="1.102939" transform="translate(302.07324 248.020208)" fill="#d2dbed" stroke-width="0"/><ellipse rx="2.573525" ry="1.102939" transform="translate(302.07324 219.020208)" fill="#d2dbed" stroke-width="0"/><ellipse rx="2.573525" ry="1.102939" transform="translate(312.07324 219.020208)" fill="#d2dbed" stroke-width="0"/><ellipse rx="2.573525" ry="1.102939" transform="translate(292.07324 226.020208)" fill="#d2dbed" stroke-width="0"/><ellipse rx="2.573525" ry="1.102939" transform="translate(302.07324 227.020208)" fill="#d2dbed" stroke-width="0"/><ellipse rx="2.573525" ry="1.102939" transform="translate(312.07324 228.020208)" fill="#d2dbed" stroke-width="0"/><ellipse rx="2.573525" ry="1.102939" transform="translate(288.07324 219.020208)" fill="#d2dbed" stroke-width="0"/><ellipse rx="2.573525" ry="1.102939" transform="translate(283.646765 214.020208)" fill="#d2dbed" stroke-width="0"/><ellipse rx="2.573525" ry="1.102939" transform="translate(273.07324 214.020208)" fill="#d2dbed" stroke-width="0"/><ellipse rx="2.573525" ry="1.102939" transform="translate(273.07324 243.020208)" fill="#d2dbed" stroke-width="0"/></svg>