<svg id="evWbnfO60hq1" xmlns="http://www.w3.org/2000/svg" xmlns:xlink="http://www.w3.org/1999/xlink" viewBox="0 0 640 480" shape-rendering="geometricPrecision" text-rendering="geometricPrecision"><ellipse rx="2.797203" ry="2.797203" transform="translate(54.265734 83.379021)" fill="#4f71b3" stroke-width="0"/><ellipse rx="2.797203" ry="2.797203" transform="translate(374.265734 83.379021)" fill="#4f71b3" stroke-width="0"/><ellipse rx="2.797203" ry="2.797203" transform="translate(534.265734 83.379021)" fill="#4f71b3" stroke-width="0"/><ellipse rx="2.797203" ry="2.797203" transform="translate(614.265734 83.379021)" fill="#4f71b3" stroke-width="0"/><ellipse rx="2.797203" ry="2.797203" transform="translate(614.265734 323.379021)" fill="#4f71b3" stroke-width="0"/><ellipse rx="2.797203" ry="2.797203" transform="translate(614.265734 343.379021)" fill="#4f71b3" stroke-width="0"/><ellipse rx="2.797203" ry="2.797203" transform="translate(614.265734 383.379021)" fill="#4f71b3" stroke-width="0"/><ellipse rx="2.797203" ry="2.797203" transform="translate(614.265734 363.379021)" fill="#4f71b3" stroke-width="0"/><ellipse rx="2.797203" ry="2.797203" transform="translate(614.265734 443.379021)" fill="#4f71b3" stroke-width="0"/><ellipse rx="2.797203" ry="2.797203" transform="translate(614.265734 403.379021)" fill="#4f71b3" stroke-width="0"/><ellipse rx="2.797203" ry="2.797203" transform="translate(614.265734 423.379021)" fill="#4f71b3" stroke-width="0"/><ellipse rx="2.797203" ry="2.797203" transform="translate(614.265734 103.379021)" fill="#4f71b3" stroke-width="0"/><ellipse rx="2.797203" ry="2.797203" transform="translate(614.265734 143.379021)" fill="#4f71b3" stroke-width="0"/><ellipse rx="2.797203" ry="2.797203" transform="translate(614.265734 123.379021)" fill="#4f71b3" stroke-width="0"/><ellipse rx="2.797203" ry="2.797203" transform="translate(614.265734 203.379021)" fill="#4f71b3" stroke-width="0"/><ellipse rx="2.797203" ry="2.797203" transform="translate(614.265734 283.379021)" fill="#4f71b3" stroke-width="0"/><ellipse rx="2.797203" ry="2.797203" transform="translate(614.265734 243.379021)" fill="#4f71b3" stroke-width="0"/><ellipse rx="2.797203" ry="2.797203" transform="translate(614.265734 263.379021)" fill="#4f71b3" stroke-width="0"/><ellipse rx="2.797203" ry="2.797203" transform="translate(614.265734 303.379021)" fill="#4f71b3" stroke-width="0"/><ellipse rx="2.797203" ry="2.797203" transform="translate(614.265734 163.379021)" fill="#4f71b3" stroke-width="0"/><ellipse rx="2.797203" ry="2.797203" transform="translate(614.265734 183.379021)" fill="#4f71b3" stroke-width="0"/><ellipse rx="2.797203" ry="2.797203" transform="translate(614.265734 223.379021)" fill="#4f71b3" stroke-width="0"/><ellipse rx="2.797203" ry="2.797203" transform="translate(534.265734 323.379021)" fill="#4f71b3" stroke-width="0"/><ellipse rx="2.797203" ry="2.797203" transform="translate(574.265734 93.379021)" fill="#4f71b3" stroke-width="0"/><ellipse rx="2.797203" ry="2.797203" transform="translate(574.265734 333.379021)" fill="#4f71b3" stroke-width="0"/><ellipse rx="2.797203" ry="2.797203" transform="translate(574.265734 353.379021)" fill="#4f71b3" stroke-width="0"/><ellipse rx="2.797203" ry="2.797203" transform="translate(574.265734 393.379021)" fill="#4f71b3" stroke-width="0"/><ellipse rx="2.797203" ry="2.797203" transform="translate(574.265734 373.379021)" fill="#4f71b3" stroke-width="0"/><ellipse rx="2.797203" ry="2.797203" transform="translate(574.265734 413.379021)" fill="#4f71b3" stroke-width="0"/><ellipse rx="2.797203" ry="2.797203" transform="translate(574.265734 433.379021)" fill="#4f71b3" stroke-width="0"/><ellipse rx="2.797203" ry="2.797203" transform="translate(574.265734 233.379021)" fill="#4f71b3" stroke-width="0"/><ellipse rx="2.797203" ry="2.797203" transform="translate(574.265734 113.379021)" fill="#4f71b3" stroke-width="0"/><ellipse rx="2.797203" ry="2.797203" transform="translate(574.265734 153.379021)" fill="#4f71b3" stroke-width="0"/><ellipse rx="2.797203" ry="2.797203" transform="translate(574.265734 133.379021)" fill="#4f71b3" stroke-width="0"/><ellipse rx="2.797203" ry="2.797203" transform="translate(574.265734 213.379021)" fill="#4f71b3" stroke-width="0"/><ellipse rx="2.797203" ry="2.797203" transform="translate(574.265734 293.379021)" fill="#4f71b3" stroke-width="0"/><ellipse rx="2.797203" ry="2.797203" transform="translate(574.265734 253.379021)" fill="#4f71b3" stroke-width="0"/><ellipse rx="2.797203" ry="2.797203" transform="translate(574.265734 273.379021)" fill="#4f71b3" stroke-width="0"/><ellipse rx="2.797203" ry="2.797203" transform="translate(574.265734 313.379021)" fill="#4f71b3" stroke-width="0"/><ellipse rx="2.797203" ry="2.797203" transform="translate(574.265734 173.379021)" fill="#4f71b3" stroke-width="0"/><ellipse rx="2.797203" ry="2.797203" transform="translate(574.265734 193.379021)" fill="#4f71b3" stroke-width="0"/><ellipse rx="2.797203" ry="2.797203" transform="translate(534.265734 343.379021)" fill="#4f71b3" stroke-width="0"/><ellipse rx="2.797203" ry="2.797203" transform="translate(534.265734 383.379021)" fill="#4f71b3" stroke-width="0"/><ellipse rx="2.797203" ry="2.797203" transform="translate(534.265734 363.379021)" fill="#4f71b3" stroke-width="0"/><ellipse rx="2.797203" ry="2.797203" transform="translate(534.265734 443.379021)" fill="#4f71b3" stroke-width="0"/><ellipse rx="2.797203" ry="2.797203" transform="translate(534.265734 403.379021)" fill="#4f71b3" stroke-width="0"/><ellipse rx="2.797203" ry="2.797203" transform="translate(534.265734 423.379021)" fill="#4f71b3" stroke-width="0"/><ellipse rx="2.797203" ry="2.797203" transform="translate(534.265734 103.379021)" fill="#4f71b3" stroke-width="0"/><ellipse rx="2.797203" ry="2.797203" transform="translate(534.265734 143.379021)" fill="#4f71b3" stroke-width="0"/><ellipse rx="2.797203" ry="2.797203" transform="translate(534.265734 123.379021)" fill="#4f71b3" stroke-width="0"/><ellipse rx="2.797203" ry="2.797203" transform="translate(534.265734 203.379021)" fill="#4f71b3" stroke-width="0"/><ellipse rx="2.797203" ry="2.797203" transform="translate(534.265734 283.379021)" fill="#4f71b3" stroke-width="0"/><ellipse rx="2.797203" ry="2.797203" transform="translate(534.265734 243.379021)" fill="#4f71b3" stroke-width="0"/><ellipse rx="2.797203" ry="2.797203" transform="translate(534.265734 263.379021)" fill="#4f71b3" stroke-width="0"/><ellipse rx="2.797203" ry="2.797203" transform="translate(534.265734 303.379021)" fill="#4f71b3" stroke-width="0"/><ellipse rx="2.797203" ry="2.797203" transform="translate(534.265734 163.379021)" fill="#4f71b3" stroke-width="0"/><ellipse rx="2.797203" ry="2.797203" transform="translate(534.265734 183.379021)" fill="#4f71b3" stroke-width="0"/><ellipse rx="2.797203" ry="2.797203" transform="translate(534.265734 223.379021)" fill="#4f71b3" stroke-width="0"/><ellipse rx="2.797203" ry="2.797203" transform="translate(454.265734 83.379021)" fill="#4f71b3" stroke-width="0"/><ellipse rx="2.797203" ry="2.797203" transform="translate(454.265734 323.379021)" fill="#4f71b3" stroke-width="0"/><ellipse rx="2.797203" ry="2.797203" transform="translate(494.265734 93.379021)" fill="#4f71b3" stroke-width="0"/><ellipse rx="2.797203" ry="2.797203" transform="translate(494.265734 333.379021)" fill="#4f71b3" stroke-width="0"/><ellipse rx="2.797203" ry="2.797203" transform="translate(494.265734 353.379021)" fill="#4f71b3" stroke-width="0"/><ellipse rx="2.797203" ry="2.797203" transform="translate(494.265734 393.379021)" fill="#4f71b3" stroke-width="0"/><ellipse rx="2.797203" ry="2.797203" transform="translate(494.265734 373.379021)" fill="#4f71b3" stroke-width="0"/><ellipse rx="2.797203" ry="2.797203" transform="translate(494.265734 413.379021)" fill="#4f71b3" stroke-width="0"/><ellipse rx="2.797203" ry="2.797203" transform="translate(494.265734 433.379021)" fill="#4f71b3" stroke-width="0"/><ellipse rx="2.797203" ry="2.797203" transform="translate(494.265734 233.379021)" fill="#4f71b3" stroke-width="0"/><ellipse rx="2.797203" ry="2.797203" transform="translate(494.265734 113.379021)" fill="#4f71b3" stroke-width="0"/><ellipse rx="2.797203" ry="2.797203" transform="translate(494.265734 153.379021)" fill="#4f71b3" stroke-width="0"/><ellipse rx="2.797203" ry="2.797203" transform="translate(494.265734 133.379021)" fill="#4f71b3" stroke-width="0"/><ellipse rx="2.797203" ry="2.797203" transform="translate(494.265734 213.379021)" fill="#4f71b3" stroke-width="0"/><ellipse rx="2.797203" ry="2.797203" transform="translate(494.265734 293.379021)" fill="#4f71b3" stroke-width="0"/><ellipse rx="2.797203" ry="2.797203" transform="translate(494.265734 253.379021)" fill="#4f71b3" stroke-width="0"/><ellipse rx="2.797203" ry="2.797203" transform="translate(494.265734 273.379021)" fill="#4f71b3" stroke-width="0"/><ellipse rx="2.797203" ry="2.797203" transform="translate(494.265734 313.379021)" fill="#4f71b3" stroke-width="0"/><ellipse rx="2.797203" ry="2.797203" transform="translate(494.265734 173.379021)" fill="#4f71b3" stroke-width="0"/><ellipse rx="2.797203" ry="2.797203" transform="translate(494.265734 193.379021)" fill="#4f71b3" stroke-width="0"/><ellipse rx="2.797203" ry="2.797203" transform="translate(454.265734 343.379021)" fill="#4f71b3" stroke-width="0"/><ellipse rx="2.797203" ry="2.797203" transform="translate(454.265734 383.379021)" fill="#4f71b3" stroke-width="0"/><ellipse rx="2.797203" ry="2.797203" transform="translate(454.265734 363.379021)" fill="#4f71b3" stroke-width="0"/><ellipse rx="2.797203" ry="2.797203" transform="translate(454.265734 443.379021)" fill="#4f71b3" stroke-width="0"/><ellipse rx="2.797203" ry="2.797203" transform="translate(454.265734 403.379021)" fill="#4f71b3" stroke-width="0"/><ellipse rx="2.797203" ry="2.797203" transform="translate(454.265734 423.379021)" fill="#4f71b3" stroke-width="0"/><ellipse rx="2.797203" ry="2.797203" transform="translate(454.265734 103.379021)" fill="#4f71b3" stroke-width="0"/><ellipse rx="2.797203" ry="2.797203" transform="translate(454.265734 143.379021)" fill="#4f71b3" stroke-width="0"/><ellipse rx="2.797203" ry="2.797203" transform="translate(454.265734 123.379021)" fill="#4f71b3" stroke-width="0"/><ellipse rx="2.797203" ry="2.797203" transform="translate(454.265734 203.379021)" fill="#4f71b3" stroke-width="0"/><ellipse rx="2.797203" ry="2.797203" transform="translate(454.265734 283.379021)" fill="#4f71b3" stroke-width="0"/><ellipse rx="2.797203" ry="2.797203" transform="translate(454.265734 243.379021)" fill="#4f71b3" stroke-width="0"/><ellipse rx="2.797203" ry="2.797203" transform="translate(454.265734 263.379021)" fill="#4f71b3" stroke-width="0"/><ellipse rx="2.797203" ry="2.797203" transform="translate(454.265734 303.379021)" fill="#4f71b3" stroke-width="0"/><ellipse rx="2.797203" ry="2.797203" transform="translate(454.265734 163.379021)" fill="#4f71b3" stroke-width="0"/><ellipse rx="2.797203" ry="2.797203" transform="translate(454.265734 183.379021)" fill="#4f71b3" stroke-width="0"/><ellipse rx="2.797203" ry="2.797203" transform="translate(454.265734 223.379021)" fill="#4f71b3" stroke-width="0"/><ellipse rx="2.797203" ry="2.797203" transform="translate(374.265734 323.379021)" fill="#4f71b3" stroke-width="0"/><ellipse rx="2.797203" ry="2.797203" transform="translate(414.265734 93.379021)" fill="#4f71b3" stroke-width="0"/><ellipse rx="2.797203" ry="2.797203" transform="translate(414.265734 333.379021)" fill="#4f71b3" stroke-width="0"/><ellipse rx="2.797203" ry="2.797203" transform="translate(414.265734 353.379021)" fill="#4f71b3" stroke-width="0"/><ellipse rx="2.797203" ry="2.797203" transform="translate(414.265734 393.379021)" fill="#4f71b3" stroke-width="0"/><ellipse rx="2.797203" ry="2.797203" transform="translate(414.265734 373.379021)" fill="#4f71b3" stroke-width="0"/><ellipse rx="2.797203" ry="2.797203" transform="translate(414.265734 413.379021)" fill="#4f71b3" stroke-width="0"/><ellipse rx="2.797203" ry="2.797203" transform="translate(414.265734 433.379021)" fill="#4f71b3" stroke-width="0"/><ellipse rx="2.797203" ry="2.797203" transform="translate(414.265734 233.379021)" fill="#4f71b3" stroke-width="0"/><ellipse rx="2.797203" ry="2.797203" transform="translate(414.265734 113.379021)" fill="#4f71b3" stroke-width="0"/><ellipse rx="2.797203" ry="2.797203" transform="translate(414.265734 153.379021)" fill="#4f71b3" stroke-width="0"/><ellipse rx="2.797203" ry="2.797203" transform="translate(414.265734 133.379021)" fill="#4f71b3" stroke-width="0"/><ellipse rx="2.797203" ry="2.797203" transform="translate(414.265734 213.379021)" fill="#4f71b3" stroke-width="0"/><ellipse rx="2.797203" ry="2.797203" transform="translate(414.265734 293.379021)" fill="#4f71b3" stroke-width="0"/><ellipse rx="2.797203" ry="2.797203" transform="translate(414.265734 253.379021)" fill="#4f71b3" stroke-width="0"/><ellipse rx="2.797203" ry="2.797203" transform="translate(414.265734 273.379021)" fill="#4f71b3" stroke-width="0"/><ellipse rx="2.797203" ry="2.797203" transform="translate(414.265734 313.379021)" fill="#4f71b3" stroke-width="0"/><ellipse rx="2.797203" ry="2.797203" transform="translate(414.265734 173.379021)" fill="#4f71b3" stroke-width="0"/><ellipse rx="2.797203" ry="2.797203" transform="translate(414.265734 193.379021)" fill="#4f71b3" stroke-width="0"/><ellipse rx="2.797203" ry="2.797203" transform="translate(374.265734 343.379021)" fill="#4f71b3" stroke-width="0"/><ellipse rx="2.797203" ry="2.797203" transform="translate(374.265734 383.379021)" fill="#4f71b3" stroke-width="0"/><ellipse rx="2.797203" ry="2.797203" transform="translate(374.265734 363.379021)" fill="#4f71b3" stroke-width="0"/><ellipse rx="2.797203" ry="2.797203" transform="translate(374.265734 443.379021)" fill="#4f71b3" stroke-width="0"/><ellipse rx="2.797203" ry="2.797203" transform="translate(374.265734 403.379021)" fill="#4f71b3" stroke-width="0"/><ellipse rx="2.797203" ry="2.797203" transform="translate(374.265734 423.379021)" fill="#4f71b3" stroke-width="0"/><ellipse rx="2.797203" ry="2.797203" transform="translate(374.265734 103.379021)" fill="#4f71b3" stroke-width="0"/><ellipse rx="2.797203" ry="2.797203" transform="translate(374.265734 143.379021)" fill="#4f71b3" stroke-width="0"/><ellipse rx="2.797203" ry="2.797203" transform="translate(374.265734 123.379021)" fill="#4f71b3" stroke-width="0"/><ellipse rx="2.797203" ry="2.797203" transform="translate(374.265734 203.379021)" fill="#4f71b3" stroke-width="0"/><ellipse rx="2.797203" ry="2.797203" transform="translate(374.265734 283.379021)" fill="#4f71b3" stroke-width="0"/><ellipse rx="2.797203" ry="2.797203" transform="translate(374.265734 243.379021)" fill="#4f71b3" stroke-width="0"/><ellipse rx="2.797203" ry="2.797203" transform="translate(374.265734 263.379021)" fill="#4f71b3" stroke-width="0"/><ellipse rx="2.797203" ry="2.797203" transform="translate(374.265734 303.379021)" fill="#4f71b3" stroke-width="0"/><ellipse rx="2.797203" ry="2.797203" transform="translate(374.265734 163.379021)" fill="#4f71b3" stroke-width="0"/><ellipse rx="2.797203" ry="2.797203" transform="translate(374.265734 183.379021)" fill="#4f71b3" stroke-width="0"/><ellipse rx="2.797203" ry="2.797203" transform="translate(374.265734 223.379021)" fill="#4f71b3" stroke-width="0"/><ellipse rx="2.797203" ry="2.797203" transform="translate(214.265734 83.379021)" fill="#4f71b3" stroke-width="0"/><ellipse rx="2.797203" ry="2.797203" transform="translate(294.265734 83.379021)" fill="#4f71b3" stroke-width="0"/><ellipse rx="2.797203" ry="2.797203" transform="translate(294.265734 323.379021)" fill="#4f71b3" stroke-width="0"/><ellipse rx="2.797203" ry="2.797203" transform="translate(334.265734 93.379021)" fill="#4f71b3" stroke-width="0"/><ellipse rx="2.797203" ry="2.797203" transform="translate(334.265734 333.379021)" fill="#4f71b3" stroke-width="0"/><ellipse rx="2.797203" ry="2.797203" transform="translate(334.265734 353.379021)" fill="#4f71b3" stroke-width="0"/><ellipse rx="2.797203" ry="2.797203" transform="translate(334.265734 393.379021)" fill="#4f71b3" stroke-width="0"/><ellipse rx="2.797203" ry="2.797203" transform="translate(334.265734 373.379021)" fill="#4f71b3" stroke-width="0"/><ellipse rx="2.797203" ry="2.797203" transform="translate(334.265734 413.379021)" fill="#4f71b3" stroke-width="0"/><ellipse rx="2.797203" ry="2.797203" transform="translate(334.265734 433.379021)" fill="#4f71b3" stroke-width="0"/><ellipse rx="2.797203" ry="2.797203" transform="translate(334.265734 233.379021)" fill="#4f71b3" stroke-width="0"/><ellipse rx="2.797203" ry="2.797203" transform="translate(334.265734 113.379021)" fill="#4f71b3" stroke-width="0"/><ellipse rx="2.797203" ry="2.797203" transform="translate(334.265734 153.379021)" fill="#4f71b3" stroke-width="0"/><ellipse rx="2.797203" ry="2.797203" transform="translate(334.265734 133.379021)" fill="#4f71b3" stroke-width="0"/><ellipse rx="2.797203" ry="2.797203" transform="translate(334.265734 213.379021)" fill="#4f71b3" stroke-width="0"/><ellipse rx="2.797203" ry="2.797203" transform="translate(334.265734 293.379021)" fill="#4f71b3" stroke-width="0"/><ellipse rx="2.797203" ry="2.797203" transform="translate(334.265734 253.379021)" fill="#4f71b3" stroke-width="0"/><ellipse rx="2.797203" ry="2.797203" transform="translate(334.265734 273.379021)" fill="#4f71b3" stroke-width="0"/><ellipse rx="2.797203" ry="2.797203" transform="translate(334.265734 313.379021)" fill="#4f71b3" stroke-width="0"/><ellipse rx="2.797203" ry="2.797203" transform="translate(334.265734 173.379021)" fill="#4f71b3" stroke-width="0"/><ellipse rx="2.797203" ry="2.797203" transform="translate(334.265734 193.379021)" fill="#4f71b3" stroke-width="0"/><ellipse rx="2.797203" ry="2.797203" transform="translate(294.265734 343.379021)" fill="#4f71b3" stroke-width="0"/><ellipse rx="2.797203" ry="2.797203" transform="translate(294.265734 383.379021)" fill="#4f71b3" stroke-width="0"/><ellipse rx="2.797203" ry="2.797203" transform="translate(294.265734 363.379021)" fill="#4f71b3" stroke-width="0"/><ellipse rx="2.797203" ry="2.797203" transform="translate(294.265734 443.379021)" fill="#4f71b3" stroke-width="0"/><ellipse rx="2.797203" ry="2.797203" transform="translate(294.265734 403.379021)" fill="#4f71b3" stroke-width="0"/><ellipse rx="2.797203" ry="2.797203" transform="translate(294.265734 423.379021)" fill="#4f71b3" stroke-width="0"/><ellipse rx="2.797203" ry="2.797203" transform="translate(294.265734 103.379021)" fill="#4f71b3" stroke-width="0"/><ellipse rx="2.797203" ry="2.797203" transform="translate(294.265734 143.379021)" fill="#4f71b3" stroke-width="0"/><ellipse rx="2.797203" ry="2.797203" transform="translate(294.265734 123.379021)" fill="#4f71b3" stroke-width="0"/><ellipse rx="2.797203" ry="2.797203" transform="translate(294.265734 203.379021)" fill="#4f71b3" stroke-width="0"/><ellipse rx="2.797203" ry="2.797203" transform="translate(294.265734 283.379021)" fill="#4f71b3" stroke-width="0"/><ellipse rx="2.797203" ry="2.797203" transform="translate(294.265734 243.379021)" fill="#4f71b3" stroke-width="0"/><ellipse rx="2.797203" ry="2.797203" transform="translate(294.265734 263.379021)" fill="#4f71b3" stroke-width="0"/><ellipse rx="2.797203" ry="2.797203" transform="translate(294.265734 303.379021)" fill="#4f71b3" stroke-width="0"/><ellipse rx="2.797203" ry="2.797203" transform="translate(294.265734 163.379021)" fill="#4f71b3" stroke-width="0"/><ellipse rx="2.797203" ry="2.797203" transform="translate(294.265734 183.379021)" fill="#4f71b3" stroke-width="0"/><ellipse rx="2.797203" ry="2.797203" transform="translate(294.265734 223.379021)" fill="#4f71b3" stroke-width="0"/><ellipse rx="2.797203" ry="2.797203" transform="translate(214.265734 323.379021)" fill="#4f71b3" stroke-width="0"/><ellipse rx="2.797203" ry="2.797203" transform="translate(254.265734 93.379021)" fill="#4f71b3" stroke-width="0"/><ellipse rx="2.797203" ry="2.797203" transform="translate(254.265734 333.379021)" fill="#4f71b3" stroke-width="0"/><ellipse rx="2.797203" ry="2.797203" transform="translate(254.265734 353.379021)" fill="#4f71b3" stroke-width="0"/><ellipse rx="2.797203" ry="2.797203" transform="translate(254.265734 393.379021)" fill="#4f71b3" stroke-width="0"/><ellipse rx="2.797203" ry="2.797203" transform="translate(254.265734 373.379021)" fill="#4f71b3" stroke-width="0"/><ellipse rx="2.797203" ry="2.797203" transform="translate(254.265734 413.379021)" fill="#4f71b3" stroke-width="0"/><ellipse rx="2.797203" ry="2.797203" transform="translate(254.265734 433.379021)" fill="#4f71b3" stroke-width="0"/><ellipse rx="2.797203" ry="2.797203" transform="translate(254.265734 233.379021)" fill="#4f71b3" stroke-width="0"/><ellipse rx="2.797203" ry="2.797203" transform="translate(254.265734 113.379021)" fill="#4f71b3" stroke-width="0"/><ellipse rx="2.797203" ry="2.797203" transform="translate(254.265734 153.379021)" fill="#4f71b3" stroke-width="0"/><ellipse rx="2.797203" ry="2.797203" transform="translate(254.265734 133.379021)" fill="#4f71b3" stroke-width="0"/><ellipse rx="2.797203" ry="2.797203" transform="translate(254.265734 213.379021)" fill="#4f71b3" stroke-width="0"/><ellipse rx="2.797203" ry="2.797203" transform="translate(254.265734 293.379021)" fill="#4f71b3" stroke-width="0"/><ellipse rx="2.797203" ry="2.797203" transform="translate(254.265734 253.379021)" fill="#4f71b3" stroke-width="0"/><ellipse rx="2.797203" ry="2.797203" transform="translate(254.265734 273.379021)" fill="#4f71b3" stroke-width="0"/><ellipse rx="2.797203" ry="2.797203" transform="translate(254.265734 313.379021)" fill="#4f71b3" stroke-width="0"/><ellipse rx="2.797203" ry="2.797203" transform="translate(254.265734 173.379021)" fill="#4f71b3" stroke-width="0"/><ellipse rx="2.797203" ry="2.797203" transform="translate(254.265734 193.379021)" fill="#4f71b3" stroke-width="0"/><ellipse rx="2.797203" ry="2.797203" transform="translate(214.265734 343.379021)" fill="#4f71b3" stroke-width="0"/><ellipse rx="2.797203" ry="2.797203" transform="translate(214.265734 383.379021)" fill="#4f71b3" stroke-width="0"/><ellipse rx="2.797203" ry="2.797203" transform="translate(214.265734 363.379021)" fill="#4f71b3" stroke-width="0"/><ellipse rx="2.797203" ry="2.797203" transform="translate(214.265734 443.379021)" fill="#4f71b3" stroke-width="0"/><ellipse rx="2.797203" ry="2.797203" transform="translate(214.265734 403.379021)" fill="#4f71b3" stroke-width="0"/><ellipse rx="2.797203" ry="2.797203" transform="translate(214.265734 423.379021)" fill="#4f71b3" stroke-width="0"/><ellipse rx="2.797203" ry="2.797203" transform="translate(214.265734 103.379021)" fill="#4f71b3" stroke-width="0"/><ellipse rx="2.797203" ry="2.797203" transform="translate(214.265734 143.379021)" fill="#4f71b3" stroke-width="0"/><ellipse rx="2.797203" ry="2.797203" transform="translate(214.265734 123.379021)" fill="#4f71b3" stroke-width="0"/><ellipse rx="2.797203" ry="2.797203" transform="translate(214.265734 203.379021)" fill="#4f71b3" stroke-width="0"/><ellipse rx="2.797203" ry="2.797203" transform="translate(214.265734 283.379021)" fill="#4f71b3" stroke-width="0"/><ellipse rx="2.797203" ry="2.797203" transform="translate(214.265734 243.379021)" fill="#4f71b3" stroke-width="0"/><ellipse rx="2.797203" ry="2.797203" transform="translate(214.265734 263.379021)" fill="#4f71b3" stroke-width="0"/><ellipse rx="2.797203" ry="2.797203" transform="translate(214.265734 303.379021)" fill="#4f71b3" stroke-width="0"/><ellipse rx="2.797203" ry="2.797203" transform="translate(214.265734 163.379021)" fill="#4f71b3" stroke-width="0"/><ellipse rx="2.797203" ry="2.797203" transform="translate(214.265734 183.379021)" fill="#4f71b3" stroke-width="0"/><ellipse rx="2.797203" ry="2.797203" transform="translate(214.265734 223.379021)" fill="#4f71b3" stroke-width="0"/><ellipse rx="2.797203" ry="2.797203" transform="translate(134.265734 83.379021)" fill="#4f71b3" stroke-width="0"/><ellipse rx="2.797203" ry="2.797203" transform="translate(134.265734 323.379021)" fill="#4f71b3" stroke-width="0"/><ellipse rx="2.797203" ry="2.797203" transform="translate(174.265734 93.379021)" fill="#4f71b3" stroke-width="0"/><ellipse rx="2.797203" ry="2.797203" transform="translate(174.265734 333.379021)" fill="#4f71b3" stroke-width="0"/><ellipse rx="2.797203" ry="2.797203" transform="translate(174.265734 353.379021)" fill="#4f71b3" stroke-width="0"/><ellipse rx="2.797203" ry="2.797203" transform="translate(174.265734 393.379021)" fill="#4f71b3" stroke-width="0"/><ellipse rx="2.797203" ry="2.797203" transform="translate(174.265734 373.379021)" fill="#4f71b3" stroke-width="0"/><ellipse rx="2.797203" ry="2.797203" transform="translate(174.265734 413.379021)" fill="#4f71b3" stroke-width="0"/><ellipse rx="2.797203" ry="2.797203" transform="translate(174.265734 433.379021)" fill="#4f71b3" stroke-width="0"/><ellipse rx="2.797203" ry="2.797203" transform="translate(174.265734 233.379021)" fill="#4f71b3" stroke-width="0"/><ellipse rx="2.797203" ry="2.797203" transform="translate(174.265734 113.379021)" fill="#4f71b3" stroke-width="0"/><ellipse rx="2.797203" ry="2.797203" transform="translate(174.265734 153.379021)" fill="#4f71b3" stroke-width="0"/><ellipse rx="2.797203" ry="2.797203" transform="translate(174.265734 133.379021)" fill="#4f71b3" stroke-width="0"/><ellipse rx="2.797203" ry="2.797203" transform="translate(174.265734 213.379021)" fill="#4f71b3" stroke-width="0"/><ellipse rx="2.797203" ry="2.797203" transform="translate(174.265734 293.379021)" fill="#4f71b3" stroke-width="0"/><ellipse rx="2.797203" ry="2.797203" transform="translate(174.265734 253.379021)" fill="#4f71b3" stroke-width="0"/><ellipse rx="2.797203" ry="2.797203" transform="translate(174.265734 273.379021)" fill="#4f71b3" stroke-width="0"/><ellipse rx="2.797203" ry="2.797203" transform="translate(174.265734 313.379021)" fill="#4f71b3" stroke-width="0"/><ellipse rx="2.797203" ry="2.797203" transform="translate(174.265734 173.379021)" fill="#4f71b3" stroke-width="0"/><ellipse rx="2.797203" ry="2.797203" transform="translate(174.265734 193.379021)" fill="#4f71b3" stroke-width="0"/><ellipse rx="2.797203" ry="2.797203" transform="translate(134.265734 343.379021)" fill="#4f71b3" stroke-width="0"/><ellipse rx="2.797203" ry="2.797203" transform="translate(134.265734 383.379021)" fill="#4f71b3" stroke-width="0"/><ellipse rx="2.797203" ry="2.797203" transform="translate(134.265734 363.379021)" fill="#4f71b3" stroke-width="0"/><ellipse rx="2.797203" ry="2.797203" transform="translate(134.265734 443.379021)" fill="#4f71b3" stroke-width="0"/><ellipse rx="2.797203" ry="2.797203" transform="translate(134.265734 403.379021)" fill="#4f71b3" stroke-width="0"/><ellipse rx="2.797203" ry="2.797203" transform="translate(134.265734 423.379021)" fill="#4f71b3" stroke-width="0"/><ellipse rx="2.797203" ry="2.797203" transform="translate(134.265734 103.379021)" fill="#4f71b3" stroke-width="0"/><ellipse rx="2.797203" ry="2.797203" transform="translate(134.265734 143.379021)" fill="#4f71b3" stroke-width="0"/><ellipse rx="2.797203" ry="2.797203" transform="translate(134.265734 123.379021)" fill="#4f71b3" stroke-width="0"/><ellipse rx="2.797203" ry="2.797203" transform="translate(134.265734 203.379021)" fill="#4f71b3" stroke-width="0"/><ellipse rx="2.797203" ry="2.797203" transform="translate(134.265734 283.379021)" fill="#4f71b3" stroke-width="0"/><ellipse rx="2.797203" ry="2.797203" transform="translate(134.265734 243.379021)" fill="#4f71b3" stroke-width="0"/><ellipse rx="2.797203" ry="2.797203" transform="translate(134.265734 263.379021)" fill="#4f71b3" stroke-width="0"/><ellipse rx="2.797203" ry="2.797203" transform="translate(134.265734 303.379021)" fill="#4f71b3" stroke-width="0"/><ellipse rx="2.797203" ry="2.797203" transform="translate(134.265734 163.379021)" fill="#4f71b3" stroke-width="0"/><ellipse rx="2.797203" ry="2.797203" transform="translate(134.265734 183.379021)" fill="#4f71b3" stroke-width="0"/><ellipse rx="2.797203" ry="2.797203" transform="translate(134.265734 223.379021)" fill="#4f71b3" stroke-width="0"/><ellipse rx="2.797203" ry="2.797203" transform="translate(54.265734 323.379021)" fill="#4f71b3" stroke-width="0"/><ellipse rx="2.797203" ry="2.797203" transform="translate(94.265734 93.379021)" fill="#4f71b3" stroke-width="0"/><ellipse rx="2.797203" ry="2.797203" transform="translate(94.265734 333.379021)" fill="#4f71b3" stroke-width="0"/><ellipse rx="2.797203" ry="2.797203" transform="translate(94.265734 353.379021)" fill="#4f71b3" stroke-width="0"/><ellipse rx="2.797203" ry="2.797203" transform="translate(94.265734 393.379021)" fill="#4f71b3" stroke-width="0"/><ellipse rx="2.797203" ry="2.797203" transform="translate(94.265734 373.379021)" fill="#4f71b3" stroke-width="0"/><ellipse rx="2.797203" ry="2.797203" transform="translate(94.265734 413.379021)" fill="#4f71b3" stroke-width="0"/><ellipse rx="2.797203" ry="2.797203" transform="translate(94.265734 433.379021)" fill="#4f71b3" stroke-width="0"/><ellipse rx="2.797203" ry="2.797203" transform="translate(94.265734 233.379021)" fill="#4f71b3" stroke-width="0"/><ellipse rx="2.797203" ry="2.797203" transform="translate(94.265734 113.379021)" fill="#4f71b3" stroke-width="0"/><ellipse rx="2.797203" ry="2.797203" transform="translate(94.265734 153.379021)" fill="#4f71b3" stroke-width="0"/><ellipse rx="2.797203" ry="2.797203" transform="translate(94.265734 133.379021)" fill="#4f71b3" stroke-width="0"/><ellipse rx="2.797203" ry="2.797203" transform="translate(94.265734 213.379021)" fill="#4f71b3" stroke-width="0"/><ellipse rx="2.797203" ry="2.797203" transform="translate(94.265734 293.379021)" fill="#4f71b3" stroke-width="0"/><ellipse rx="2.797203" ry="2.797203" transform="translate(94.265734 253.379021)" fill="#4f71b3" stroke-width="0"/><ellipse rx="2.797203" ry="2.797203" transform="translate(94.265734 273.379021)" fill="#4f71b3" stroke-width="0"/><ellipse rx="2.797203" ry="2.797203" transform="translate(94.265734 313.379021)" fill="#4f71b3" stroke-width="0"/><ellipse rx="2.797203" ry="2.797203" transform="translate(94.265734 173.379021)" fill="#4f71b3" stroke-width="0"/><ellipse rx="2.797203" ry="2.797203" transform="translate(94.265734 193.379021)" fill="#4f71b3" stroke-width="0"/><ellipse rx="2.797203" ry="2.797203" transform="translate(54.265734 343.379021)" fill="#4f71b3" stroke-width="0"/><ellipse rx="2.797203" ry="2.797203" transform="translate(54.265734 383.379021)" fill="#4f71b3" stroke-width="0"/><ellipse rx="2.797203" ry="2.797203" transform="translate(54.265734 363.379021)" fill="#4f71b3" stroke-width="0"/><ellipse rx="2.797203" ry="2.797203" transform="translate(54.265734 443.379021)" fill="#4f71b3" stroke-width="0"/><ellipse rx="2.797203" ry="2.797203" transform="translate(54.265734 403.379021)" fill="#4f71b3" stroke-width="0"/><ellipse rx="2.797203" ry="2.797203" transform="translate(54.265734 423.379021)" fill="#4f71b3" stroke-width="0"/><ellipse rx="2.797203" ry="2.797203" transform="translate(54.265734 103.379021)" fill="#4f71b3" stroke-width="0"/><ellipse rx="2.797203" ry="2.797203" transform="translate(54.265734 143.379021)" fill="#4f71b3" stroke-width="0"/><ellipse rx="2.797203" ry="2.797203" transform="translate(54.265734 123.379021)" fill="#4f71b3" stroke-width="0"/><ellipse rx="2.797203" ry="2.797203" transform="translate(54.265734 203.379021)" fill="#4f71b3" stroke-width="0"/><ellipse rx="2.797203" ry="2.797203" transform="translate(54.265734 283.379021)" fill="#4f71b3" stroke-width="0"/><ellipse rx="2.797203" ry="2.797203" transform="translate(54.265734 243.379021)" fill="#4f71b3" stroke-width="0"/><ellipse rx="2.797203" ry="2.797203" transform="translate(54.265734 263.379021)" fill="#4f71b3" stroke-width="0"/><ellipse rx="2.797203" ry="2.797203" transform="translate(54.265734 303.379021)" fill="#4f71b3" stroke-width="0"/><ellipse rx="2.797203" ry="2.797203" transform="translate(54.265734 163.379021)" fill="#4f71b3" stroke-width="0"/><ellipse rx="2.797203" ry="2.797203" transform="translate(54.265734 183.379021)" fill="#4f71b3" stroke-width="0"/><ellipse rx="2.797203" ry="2.797203" transform="translate(54.265734 223.379021)" fill="#4f71b3" stroke-width="0"/></svg>