<svg id="eVWFtQPgdbB1" xmlns="http://www.w3.org/2000/svg" xmlns:xlink="http://www.w3.org/1999/xlink" viewBox="0 0 640 480" shape-rendering="geometricPrecision" text-rendering="geometricPrecision"><ellipse rx="109.057051" ry="109.057051" transform="translate(320 234.023946)" fill="#4f71b3" stroke-width="0"/><ellipse rx="3.794054" ry="3.794054" transform="translate(403.536533 230.229892)" fill="#d2dbed" stroke-width="0"/><ellipse rx="3.794054" ry="3.794054" transform="translate(403.536533 220.229892)" fill="#d2dbed" stroke-width="0"/><ellipse rx="3.794054" ry="3.794054" transform="translate(414.536533 211.229892)" fill="#d2dbed" stroke-width="0"/><ellipse rx="3.794054" ry="3.794054" transform="translate(414.536533 241.229892)" fill="#d2dbed" stroke-width="0"/><ellipse rx="3.794054" ry="3.794054" transform="translate(414.536533 211.229892)" fill="#d2dbed" stroke-width="0"/><ellipse rx="3.794054" ry="3.794054" transform="translate(391.536533 233.229892)" fill="#d2dbed" stroke-width="0"/><ellipse rx="3.794054" ry="3.794054" transform="translate(411.536533 243.229892)" fill="#d2dbed" stroke-width="0"/><ellipse rx="3.794054" ry="3.794054" transform="translate(411.536533 273.229892)" fill="#d2dbed" stroke-width="0"/><ellipse rx="3.794054" ry="3.794054" transform="translate(357.536533 328.229892)" fill="#d2dbed" stroke-width="0"/><ellipse rx="3.794054" ry="3.794054" transform="translate(357.536533 318.229892)" fill="#d2dbed" stroke-width="0"/><ellipse rx="3.794054" ry="3.794054" transform="translate(368.536533 309.229892)" fill="#d2dbed" stroke-width="0"/><ellipse rx="3.794054" ry="3.794054" transform="translate(388.536533 309.229892)" fill="#d2dbed" stroke-width="0"/><ellipse rx="3.794054" ry="3.794054" transform="translate(377.536533 298.229892)" fill="#d2dbed" stroke-width="0"/><ellipse rx="3.794054" ry="3.794054" transform="translate(377.536533 288.229892)" fill="#d2dbed" stroke-width="0"/><ellipse rx="3.794054" ry="3.794054" transform="translate(388.536533 279.229892)" fill="#d2dbed" stroke-width="0"/><ellipse rx="3.794054" ry="3.794054" transform="translate(377.536533 318.229892)" fill="#d2dbed" stroke-width="0"/><ellipse rx="3.794054" ry="3.794054" transform="translate(377.536533 308.229892)" fill="#d2dbed" stroke-width="0"/><ellipse rx="3.794054" ry="3.794054" transform="translate(388.536533 299.229892)" fill="#d2dbed" stroke-width="0"/><ellipse rx="3.794054" ry="3.794054" transform="translate(398.536533 199.229892)" fill="#d2dbed" stroke-width="0"/><ellipse rx="3.794054" ry="3.794054" transform="translate(400.536533 292.229892)" fill="#d2dbed" stroke-width="0"/><ellipse rx="3.794054" ry="3.794054" transform="translate(400.536533 282.229892)" fill="#d2dbed" stroke-width="0"/><ellipse rx="3.794054" ry="3.794054" transform="translate(411.536533 273.229892)" fill="#d2dbed" stroke-width="0"/><ellipse rx="3.794054" ry="3.794054" transform="translate(387.536533 188.229892)" fill="#d2dbed" stroke-width="0"/><ellipse rx="3.794054" ry="3.794054" transform="translate(387.536533 178.229892)" fill="#d2dbed" stroke-width="0"/><ellipse rx="3.794054" ry="3.794054" transform="translate(398.536533 169.229892)" fill="#d2dbed" stroke-width="0"/><ellipse rx="3.794054" ry="3.794054" transform="translate(398.536533 169.229892)" fill="#d2dbed" stroke-width="0"/><ellipse rx="3.794054" ry="3.794054" transform="translate(400.536533 262.229892)" fill="#d2dbed" stroke-width="0"/><ellipse rx="3.794054" ry="3.794054" transform="translate(400.536533 252.229892)" fill="#d2dbed" stroke-width="0"/><ellipse rx="3.794054" ry="3.794054" transform="translate(411.536533 243.229892)" fill="#d2dbed" stroke-width="0"/><ellipse rx="3.794054" ry="3.794054" transform="translate(411.536533 273.229892)" fill="#d2dbed" stroke-width="0"/><ellipse rx="3.794054" ry="3.794054" transform="translate(387.536533 158.229892)" fill="#d2dbed" stroke-width="0"/><ellipse rx="3.794054" ry="3.794054" transform="translate(387.536533 148.229892)" fill="#d2dbed" stroke-width="0"/><ellipse rx="3.794054" ry="3.794054" transform="translate(378.536533 159.229892)" fill="#d2dbed" stroke-width="0"/><ellipse rx="3.794054" ry="3.794054" transform="translate(380.536533 252.229892)" fill="#d2dbed" stroke-width="0"/><ellipse rx="3.794054" ry="3.794054" transform="translate(380.536533 242.229892)" fill="#d2dbed" stroke-width="0"/><ellipse rx="3.794054" ry="3.794054" transform="translate(391.536533 233.229892)" fill="#d2dbed" stroke-width="0"/><ellipse rx="3.794054" ry="3.794054" transform="translate(391.536533 263.229892)" fill="#d2dbed" stroke-width="0"/><ellipse rx="3.794054" ry="3.794054" transform="translate(367.536533 148.229892)" fill="#d2dbed" stroke-width="0"/><ellipse rx="3.794054" ry="3.794054" transform="translate(367.536533 138.229892)" fill="#d2dbed" stroke-width="0"/><ellipse rx="3.794054" ry="3.794054" transform="translate(401.536533 229.229892)" fill="#d2dbed" stroke-width="0"/><ellipse rx="3.794054" ry="3.794054" transform="translate(390.536533 218.229892)" fill="#d2dbed" stroke-width="0"/><ellipse rx="3.794054" ry="3.794054" transform="translate(390.536533 208.229892)" fill="#d2dbed" stroke-width="0"/><ellipse rx="3.794054" ry="3.794054" transform="translate(401.536533 199.229892)" fill="#d2dbed" stroke-width="0"/><ellipse rx="3.794054" ry="3.794054" transform="translate(416.536533 281.229892)" fill="#d2dbed" stroke-width="0"/><ellipse rx="3.794054" ry="3.794054" transform="translate(416.536533 271.229892)" fill="#d2dbed" stroke-width="0"/><ellipse rx="3.794054" ry="3.794054" transform="translate(403.536533 177.229892)" fill="#d2dbed" stroke-width="0"/><ellipse rx="3.794054" ry="3.794054" transform="translate(403.536533 167.229892)" fill="#d2dbed" stroke-width="0"/><ellipse rx="3.794054" ry="3.794054" transform="translate(414.536533 188.229892)" fill="#d2dbed" stroke-width="0"/></svg>